<?xml version="1.0" standalone="no"?>
<!DOCTYPE svg PUBLIC "-//W3C//DTD SVG 20010904//EN"
 "http://www.w3.org/TR/2001/REC-SVG-20010904/DTD/svg10.dtd">
<svg version="1.0" xmlns="http://www.w3.org/2000/svg"
 width="1024.000000pt" height="1024.000000pt" viewBox="0 0 1024.000000 1024.000000"
 preserveAspectRatio="xMidYMid meet">

<g transform="translate(0.000000,1024.000000) scale(0.100000,-0.100000)"
fill="#000000" stroke="none">
<path d="M5705 9070 c-4 -17 -24 -51 -46 -76 -54 -62 -67 -112 -44 -163 9 -22
14 -44 11 -49 -3 -6 -42 -35 -85 -65 -77 -54 -151 -129 -151 -153 0 -6 -13
-14 -30 -17 -58 -12 -47 -99 20 -148 37 -28 37 -39 4 -70 -15 -13 -37 -46 -49
-74 -23 -53 -83 -245 -111 -357 -9 -38 -20 -68 -23 -68 -10 0 -46 41 -60 68
-16 31 -27 21 -68 -62 -33 -68 -34 -74 -28 -150 6 -78 -2 -106 -29 -106 -6 0
-2 7 8 15 24 18 7 20 -29 3 -31 -14 -31 -19 0 -68 14 -22 25 -41 25 -44 0 -2
-21 -6 -46 -9 -51 -5 -70 -18 -61 -40 4 -11 29 -17 81 -22 l76 -7 0 -45 0 -45
-86 7 -86 7 16 -30 c18 -35 33 -42 92 -42 43 0 53 -10 36 -36 -4 -7 -40 -21
-80 -33 -63 -19 -71 -24 -63 -40 17 -30 35 -40 83 -43 l47 -3 -24 -69 c-28
-80 -28 -80 -54 -71 -16 5 -20 12 -16 28 10 37 -33 90 -87 107 -27 9 -57 29
-73 48 l-28 33 23 24 22 23 -28 53 c-31 57 -85 119 -103 119 -6 0 -11 -8 -11
-18 0 -10 -16 -42 -35 -72 -38 -61 -45 -111 -19 -148 21 -31 9 -44 -66 -71
-66 -24 -80 -41 -80 -96 0 -25 -5 -37 -17 -42 -31 -10 -63 -46 -63 -68 0 -11
7 -31 16 -43 21 -30 10 -42 -35 -42 -44 0 -71 -24 -71 -63 0 -22 -5 -27 -24
-27 -13 0 -31 -3 -40 -6 -20 -8 -76 -90 -86 -124 -5 -21 -11 -24 -39 -22 -21
2 -40 -3 -51 -13 -24 -22 -48 -93 -58 -170 l-7 -60 -43 58 c-23 31 -47 57 -52
57 -6 0 -10 13 -10 29 0 15 -9 40 -20 54 -11 14 -20 37 -20 51 0 13 -8 31 -18
38 -10 7 -32 36 -50 65 -42 65 -62 83 -62 56 0 -11 -13 -37 -30 -58 -33 -42
-38 -71 -15 -101 20 -27 19 -34 -8 -34 -30 0 -53 -25 -61 -66 -6 -26 -13 -33
-41 -38 -40 -8 -47 -17 -55 -71 -4 -32 -10 -41 -28 -43 -15 -2 -35 -23 -58
-60 -20 -31 -52 -74 -71 -96 -29 -32 -34 -44 -30 -71 5 -29 2 -33 -29 -44 -36
-13 -74 -58 -74 -87 0 -9 7 -26 17 -36 15 -17 14 -18 -16 -24 -47 -10 -77 -52
-85 -119 -4 -33 -15 -68 -26 -83 -27 -34 -25 -64 6 -102 15 -17 24 -33 21 -36
-10 -10 -181 -81 -249 -103 -113 -37 -89 -66 97 -116 72 -19 94 -29 110 -51
11 -15 35 -44 53 -65 28 -32 32 -43 32 -95 0 -33 -3 -89 -7 -126 l-6 -68 -55
0 c-63 0 -62 6 -18 -115 22 -61 26 -86 26 -202 l0 -132 -40 -17 c-45 -20 -46
-24 -25 -85 12 -34 13 -45 3 -48 -6 -2 -23 -15 -36 -28 -25 -25 -25 -31 -7
-119 7 -30 5 -32 -26 -39 -71 -15 -97 -49 -63 -86 14 -16 12 -20 -40 -53 -64
-41 -80 -66 -73 -112 5 -31 4 -33 -25 -36 -33 -3 -36 -7 -67 -80 l-20 -48
-186 0 c-114 0 -194 -4 -206 -11 -19 -10 -20 -19 -17 -102 l3 -92 -147 -5
c-90 -3 -151 -9 -158 -16 -7 -7 -10 -22 -8 -35 l3 -24 3015 -3 c2781 -2 3166
1 3188 23 12 12 -30 35 -103 57 -58 17 -155 27 -272 28 -10 0 -11 18 -7 73 5
57 3 75 -8 85 -20 16 -90 21 -299 22 l-176 0 -32 87 c-18 49 -32 98 -32 111 1
18 -5 22 -29 22 -18 0 -34 8 -44 22 -17 24 -13 40 9 31 26 -9 47 4 36 24 -5
10 -12 25 -14 34 -3 9 -19 19 -35 22 -18 4 -33 14 -37 26 -9 28 1 40 25 34 23
-6 23 -6 9 35 -7 20 -21 34 -40 41 -22 8 -29 16 -29 36 0 20 4 26 20 23 10 -2
19 0 20 5 2 38 -3 49 -25 57 -19 7 -25 17 -25 38 0 25 3 29 23 25 21 -4 23 -2
19 26 -2 18 -12 33 -23 36 -17 6 -19 17 -19 96 l0 89 30 0 c25 0 30 4 30 24 0
17 -9 27 -30 36 l-30 12 0 88 c0 48 -3 121 -6 163 l-7 77 25 0 c14 0 28 7 32
15 3 9 18 15 34 15 33 0 92 18 92 28 0 15 -104 82 -136 88 -36 7 -37 7 -35 89
0 41 5 54 26 70 14 12 25 23 25 27 0 3 -13 22 -30 43 -29 36 -30 41 -30 141 0
112 -9 149 -38 158 -16 5 -20 19 -25 84 -9 111 -41 209 -83 249 -24 22 -34 41
-34 61 0 17 -16 92 -35 169 -20 76 -49 199 -66 273 -16 74 -46 201 -65 281
l-35 146 -40 18 c-21 10 -41 16 -43 14 -2 -2 7 -105 19 -229 31 -300 31 -300
20 -300 -15 0 -28 63 -91 458 -4 26 -10 32 -29 32 -24 0 -24 -1 -20 -92 2 -51
7 -207 10 -345 l7 -253 -77 0 -78 0 7 203 c10 296 23 519 32 541 6 17 15 18
93 12 80 -7 88 -6 106 14 32 35 25 87 -16 125 -20 18 -42 34 -49 37 -10 3 -8
13 9 44 l23 41 -26 37 c-14 21 -33 63 -43 92 -9 30 -20 53 -25 52 -4 -2 -27
-42 -50 -91 l-42 -87 18 -37 c18 -39 11 -53 -27 -53 -29 0 -31 27 -14 134 10
56 17 119 17 141 0 51 -82 367 -155 600 -58 186 -61 192 -138 252 l-28 22 26
45 c39 66 33 136 -11 136 -8 0 -25 17 -38 39 -27 43 -82 90 -167 144 -31 19
-60 40 -63 46 -4 6 1 32 10 59 21 57 15 85 -27 138 -17 21 -40 58 -50 82 -10
23 -20 42 -23 42 -2 0 -7 -14 -11 -30z m114 -645 c54 -3 49 7 95 -202 71 -325
143 -797 186 -1227 27 -260 28 -240 -22 -255 -24 -7 -48 -17 -55 -23 -13 -10
-15 4 -33 222 -17 201 -58 550 -105 910 -69 520 -65 499 -93 532 -13 16 -26
27 -29 25 -2 -3 10 -168 26 -368 17 -200 37 -463 46 -584 8 -121 17 -228 19
-237 2 -10 0 -18 -5 -18 -5 0 -9 7 -9 16 0 8 -21 91 -47 182 -45 162 -48 168
-91 208 -44 40 -44 42 -28 65 9 13 16 33 16 45 0 24 -49 71 -83 80 -18 4 -22
12 -22 44 0 31 -8 47 -35 75 -47 48 -62 45 -88 -18 -26 -62 -27 -80 -7 -97 13
-11 10 -15 -24 -31 -60 -27 -67 -79 -14 -111 l26 -16 -39 -20 c-53 -27 -67
-45 -109 -135 -57 -123 -103 -319 -130 -551 -16 -146 -29 -172 -64 -137 l-21
21 71 358 c52 261 84 392 116 487 25 72 69 211 98 310 30 99 63 207 74 239 29
81 86 180 119 206 25 21 33 22 122 15 52 -5 115 -9 139 -10z m226 -154 c8 -16
30 -91 49 -167 75 -302 136 -668 186 -1111 10 -90 4 -233 -10 -233 -3 0 -14
80 -24 178 -26 267 -80 610 -153 972 -36 179 -69 342 -73 362 -8 42 3 41 25
-1z m-401 -730 c32 -51 152 -1098 141 -1221 -3 -36 -9 -76 -12 -90 -6 -22 -7
-21 -14 15 -9 47 -49 414 -84 780 -22 226 -43 400 -60 498 -3 19 0 27 10 27 7
0 16 -4 19 -9z m-105 -93 c18 -145 32 -343 29 -412 -2 -56 -4 -63 -20 -58 -17
4 -17 6 -3 22 22 25 19 34 -25 74 -37 33 -40 39 -34 74 5 32 2 44 -18 67 -20
23 -30 27 -52 21 -37 -9 -64 -65 -48 -101 17 -37 15 -43 -18 -60 -32 -17 -50
-59 -31 -78 18 -18 13 -27 -19 -27 -23 0 -30 5 -30 19 0 53 33 259 54 342 47
179 68 206 162 208 l42 1 11 -92z m-755 -437 c15 -27 14 -29 -7 -35 -12 -3
-32 -6 -43 -6 -12 0 -27 -7 -34 -15 -7 -8 -26 -15 -42 -15 -31 0 -98 27 -98
40 0 23 43 40 121 49 46 4 85 9 86 10 1 0 9 -12 17 -28z m685 -107 l32 -7 -3
-66 -3 -66 -80 4 c-44 2 -81 4 -82 5 -1 1 -4 24 -5 51 l-3 49 45 17 c52 21 57
21 99 13z m-606 -49 c18 -25 18 -25 -5 -25 -13 0 -95 -7 -183 -15 -88 -8 -167
-15 -175 -14 -24 0 38 49 63 50 12 0 67 7 122 14 148 19 157 18 178 -10z m43
-123 c-4 -12 3 -27 19 -42 14 -13 25 -28 25 -33 0 -6 -36 -7 -95 -3 -59 5 -95
4 -95 -2 0 -6 -55 -11 -131 -11 -116 -2 -134 0 -164 19 -45 28 -51 47 -17 54
15 3 101 10 192 16 91 6 181 12 200 14 19 1 43 4 53 4 13 2 17 -3 13 -16z
m599 -31 c16 -3 31 -14 33 -23 3 -13 -10 -17 -74 -23 -73 -7 -79 -6 -96 15
-10 12 -15 26 -12 31 6 10 103 10 149 0z m629 -96 c23 -54 64 -233 70 -305 l6
-65 -19 35 c-11 19 -33 48 -50 64 -17 17 -31 38 -31 47 0 10 -5 21 -11 24 -12
8 -49 -23 -49 -41 0 -16 -29 -46 -39 -40 -12 8 8 178 29 248 19 64 22 68 50
68 24 0 32 -6 44 -35z m-1754 -9 c0 -18 -22 -26 -71 -26 -32 0 -39 3 -39 20 0
18 7 20 55 20 40 0 55 -4 55 -14z m700 -21 c7 -8 21 -15 31 -15 23 0 49 -26
49 -51 0 -17 -7 -19 -57 -18 -32 1 -69 4 -82 8 -30 8 -66 54 -58 75 9 22 99
22 117 1z m470 -30 l0 -45 -48 0 c-56 0 -86 18 -100 60 l-11 30 80 0 79 0 0
-45z m-721 -9 c12 -18 21 -36 21 -40 0 -9 -70 -7 -136 5 -35 6 -69 20 -82 32
l-24 22 34 6 c18 4 63 7 100 8 65 1 67 0 87 -33z m-427 -48 c27 -8 43 -20 49
-36 5 -14 8 -26 7 -27 -2 -2 -76 -5 -166 -7 -111 -3 -161 -1 -159 6 2 6 14 13
28 14 13 2 32 11 42 20 11 10 44 22 75 28 78 16 79 16 124 2z m-642 -42 c0
-18 -88 -27 -94 -10 -7 19 4 24 51 24 30 0 43 -4 43 -14z m1813 -47 c7 -12 2
-26 -22 -59 -17 -24 -31 -49 -31 -57 0 -7 15 -28 33 -46 20 -21 37 -51 45 -85
8 -28 35 -95 61 -149 119 -244 150 -329 134 -365 -11 -23 -11 -23 -22 6 -6 15
-15 56 -20 90 -12 86 -37 133 -78 148 -24 9 -32 16 -27 28 4 8 9 30 12 48 4
27 -1 38 -30 65 -20 18 -41 51 -48 72 -21 65 -38 93 -70 112 -21 12 -30 25
-30 44 0 14 -9 38 -20 52 -26 33 -25 45 4 88 23 33 28 36 62 30 20 -3 41 -13
47 -22z m-707 -6 c7 -10 14 -28 14 -40 0 -22 -4 -23 -64 -23 -59 0 -66 2 -90
31 -14 17 -26 35 -26 40 0 5 34 9 76 9 61 0 79 -4 90 -17z m394 -9 c19 -50 15
-54 -54 -54 -70 0 -116 24 -116 61 0 17 8 19 80 19 77 0 81 -1 90 -26z m1498
-31 c27 -125 33 -176 23 -186 -7 -7 -12 -1 -17 17 -9 37 -27 28 -39 -20 -13
-51 -22 -64 -46 -64 -24 0 -25 36 -5 143 25 129 35 157 56 157 14 0 21 -11 28
-47z m-2963 -3 c9 -15 -11 -19 -114 -22 -65 -2 -95 1 -98 9 -5 15 23 20 124
22 46 0 85 -3 88 -9z m679 -10 c20 -7 26 -16 26 -40 l0 -30 -121 0 -121 0 -31
33 -32 32 55 6 c93 10 197 9 224 -1z m-640 -96 c10 -4 16 -18 16 -35 l0 -29
-120 0 c-87 0 -129 4 -149 15 -36 18 -42 11 -101 -97 -60 -113 -80 -173 -87
-261 -6 -72 -8 -79 -31 -88 -14 -6 -53 -9 -86 -7 -60 3 -61 3 -61 33 0 29 2
30 52 35 30 3 60 13 69 22 16 15 15 19 -5 53 -11 20 -21 47 -21 60 0 20 7 25
55 36 30 7 55 17 55 23 0 6 -9 26 -20 44 -26 42 -14 67 35 76 30 6 34 10 25
21 -27 33 18 85 83 96 54 8 270 11 291 3z m1550 -23 l29 -30 -24 -6 c-13 -3
-62 -5 -108 -3 -84 3 -85 3 -104 36 l-19 32 99 0 c97 0 100 -1 127 -29z m-430
8 c22 -11 36 -35 36 -67 0 -10 -16 -12 -62 -10 -56 3 -64 6 -77 30 -13 22 -13
29 -2 42 16 19 69 21 105 5z m1149 -11 c20 -16 65 -193 74 -293 3 -41 4 -75 1
-75 -3 0 -19 5 -37 11 -24 8 -36 23 -52 60 -25 57 -44 63 -53 17 -10 -52 -63
-97 -81 -68 -9 15 22 238 41 293 21 61 67 84 107 55z m-1541 -38 l17 -40 -125
0 -124 0 -14 33 c-7 17 -11 35 -9 40 2 4 57 7 121 7 l117 0 17 -40z m1958 -87
c0 -130 -10 -181 -40 -208 -20 -18 -22 -18 -55 16 -33 33 -36 39 -45 134 -16
165 -16 163 28 168 20 2 54 4 75 5 l37 2 0 -117z m-2475 97 c3 -5 2 -10 -4
-10 -5 0 -13 5 -16 10 -3 6 -2 10 4 10 5 0 13 -4 16 -10z m-157 -83 c8 -16 12
-31 9 -33 -3 -3 -51 -8 -108 -11 l-104 -5 -18 31 c-14 24 -15 32 -5 36 18 6
103 12 163 11 44 -1 51 -4 63 -29z m-311 -5 c33 -21 85 -264 69 -326 l-7 -27
-92 3 -92 3 -3 48 c-6 94 68 308 106 307 4 0 13 -4 19 -8z m1845 -3 c28 -7 40
-17 44 -35 4 -14 4 -27 2 -29 -3 -3 -45 -8 -94 -11 -78 -6 -92 -4 -111 12 -12
11 -24 29 -28 41 -5 17 -1 22 17 26 45 8 134 7 170 -4z m-1329 -47 c21 -18 22
-32 3 -32 -19 0 -46 27 -46 46 0 16 12 12 43 -14z m521 -12 c20 -51 21 -49
-11 -45 -16 2 -71 4 -124 4 l-95 1 -17 35 -16 34 57 4 c31 2 87 4 123 5 l67 2
16 -40z m435 4 c35 -18 49 -40 34 -55 -14 -14 -107 -13 -130 2 -18 11 -43 49
-43 64 0 12 111 3 139 -11z m1746 -38 c20 -30 48 -163 40 -193 -5 -22 -7 -23
-28 -8 -30 21 -63 19 -88 -6 -12 -12 -27 -18 -36 -15 -32 13 5 204 44 234 26
19 51 14 68 -12z m-2854 -22 c5 -15 7 -29 4 -33 -10 -10 -175 -19 -203 -12
-19 5 -28 15 -30 33 -4 31 7 34 136 37 81 1 83 0 93 -25z m1579 -53 c0 -16 3
-36 6 -45 5 -14 -7 -16 -97 -16 -111 0 -120 3 -138 37 -24 46 -16 50 132 52
l97 1 0 -29z m-1370 -11 c29 -29 25 -41 -9 -29 -16 6 -31 19 -34 30 -7 25 17
25 43 -1z m509 -11 c25 -9 31 -16 31 -40 l0 -29 -130 0 c-97 0 -130 3 -130 13
0 6 -3 22 -6 34 -5 19 -1 22 33 26 82 8 171 7 202 -4z m461 -45 c6 -14 10 -27
10 -30 0 -2 -22 -4 -50 -4 -37 0 -55 5 -70 20 -32 32 -24 40 40 40 56 0 61 -2
70 -26z m-1138 -35 c2 -23 -1 -43 -7 -44 -5 -2 -67 -6 -137 -9 l-128 -5 0 34
c0 19 5 37 12 41 14 9 118 21 199 23 l57 1 4 -41z m219 -36 c36 -21 40 -54 7
-46 -29 7 -58 32 -58 50 0 18 16 16 51 -4z m1373 -14 c30 -14 63 -86 46 -103
-7 -7 -51 -10 -116 -10 l-106 2 -39 38 c-44 43 -50 70 -16 77 48 9 207 6 231
-4z m835 -26 c39 -49 71 -220 57 -298 l-7 -35 -82 0 c-45 0 -88 4 -96 9 -10 7
-12 23 -6 72 9 87 34 207 50 247 18 41 54 44 84 5z m-1681 0 c15 -9 28 -18 30
-19 1 -1 -3 -13 -9 -28 l-12 -26 -124 0 -124 0 -10 28 c-15 42 -12 47 28 53
84 14 193 10 221 -8z m1374 -12 c24 -22 47 -119 55 -223 l6 -88 -45 0 c-25 0
-73 3 -107 6 l-61 7 0 41 c0 44 25 212 36 240 9 23 55 46 79 39 11 -3 28 -12
37 -22z m-944 -30 c12 -21 22 -41 22 -45 0 -10 -80 -7 -101 4 -13 8 -19 21
-19 45 0 34 1 35 38 35 34 0 41 -4 60 -39z m-1153 -56 l0 -50 -60 -7 c-33 -4
-168 -14 -300 -23 -132 -9 -279 -18 -326 -22 l-86 -6 -6 34 c-7 45 7 57 80 70
70 12 611 58 663 55 l35 -1 0 -50z m2793 38 c39 -25 42 -32 42 -96 0 -65 -14
-79 -56 -57 -18 10 -30 11 -49 2 -50 -23 -55 -18 -55 61 0 71 1 72 33 89 41
21 52 22 85 1z m-2040 -99 c26 -8 29 -41 7 -84 l-16 -30 -100 0 c-93 0 -102 2
-124 25 -16 15 -25 36 -25 54 l0 30 68 4 c132 6 167 7 190 1z m430 -30 l52 -7
0 -48 0 -49 -85 0 -85 0 0 48 c0 27 3 52 7 55 8 9 43 9 111 1z m530 -72 l3
-53 -138 7 c-76 3 -144 7 -150 10 -14 4 -18 75 -6 88 4 3 70 5 147 4 l141 -3
3 -53z m-1547 13 c41 -14 144 -46 230 -70 l156 -45 190 0 189 0 30 -32 c22
-23 24 -29 9 -22 -11 5 -110 10 -220 11 -199 2 -200 2 -353 43 -84 22 -174 48
-200 57 -42 14 -81 14 -377 4 -686 -23 -718 -24 -711 -13 14 22 108 41 261 52
648 47 700 47 796 15z m2679 -60 l0 -25 -100 0 c-90 0 -100 2 -100 18 0 10 3
22 7 25 3 4 48 7 100 7 93 0 93 0 93 -25z m-1610 -335 l0 -260 -85 0 -85 0 0
260 0 260 85 0 85 0 0 -260z m480 209 l0 -42 -77 7 c-42 3 -109 6 -150 6 l-73
0 0 35 0 35 150 0 150 0 0 -41z m440 -34 l0 -35 -94 0 c-115 0 -126 4 -126 41
l0 29 110 0 110 0 0 -35z m-2140 -19 c0 -49 -10 -56 -87 -56 -39 0 -46 4 -73
42 -16 22 -30 45 -30 50 0 4 43 8 95 8 l95 0 0 -44z m2440 9 c0 -35 -1 -35
-42 -35 -24 0 -67 3 -95 6 -50 6 -53 8 -53 35 l0 29 95 0 95 0 0 -35z m349 29
c28 -6 31 -10 31 -45 l0 -39 -96 0 -95 0 3 37 c2 30 8 39 28 44 33 9 90 10
129 3z m-3444 -40 c-8 -20 -15 -38 -15 -40 0 -2 -26 -4 -58 -4 -54 0 -60 2
-81 31 -31 42 -19 49 87 49 l82 0 -15 -36z m1434 -13 c11 -7 12 -17 5 -43 -9
-32 -12 -33 -66 -36 -51 -3 -58 0 -77 24 -12 15 -20 32 -18 38 2 6 32 14 68
17 35 3 66 6 69 7 3 1 11 -2 19 -7z m-373 -33 c-3 -13 -6 -29 -6 -35 0 -23
-90 -16 -117 9 -41 39 -31 48 53 48 74 0 76 -1 70 -22z m1092 -195 l2 -183
-50 0 -50 0 0 186 0 185 48 -3 47 -3 3 -182z m202 2 l0 -185 -50 0 -50 0 0
185 0 185 50 0 50 0 0 -185z m378 146 l62 -1 0 -190 0 -190 -49 0 c-26 0 -76
3 -110 6 l-61 7 0 182 c0 100 2 184 4 186 2 2 24 3 48 2 23 -1 71 -2 106 -2z
m362 -197 l0 -195 -87 6 c-49 4 -94 8 -100 10 -10 3 -13 50 -13 190 l0 185
100 0 100 0 0 -196z m-3120 76 l0 -110 -50 0 -50 0 0 104 c0 115 -1 112 68
115 l32 1 0 -110z m670 38 c0 -40 -3 -90 -6 -110 -7 -38 -7 -38 -55 -38 l-49
0 0 110 0 110 55 0 55 0 0 -72z m780 -65 c0 -148 -2 -153 -56 -153 l-44 0 0
124 c0 136 -1 134 63 135 l37 1 0 -107z m-380 -19 l0 -116 -31 6 c-17 3 -38 6
-45 6 -16 0 -18 43 -7 153 l6 67 38 0 39 0 0 -116z m2410 -64 l0 -170 -44 0
c-25 0 -48 5 -52 11 -3 6 -3 82 1 170 l7 159 44 0 44 0 0 -170z m-2800 -135
l0 -55 -42 0 c-24 0 -67 -3 -95 -6 l-53 -7 0 62 0 61 95 0 95 0 0 -55z m230
26 l125 -28 3 -46 c4 -55 16 -53 -148 -29 l-115 17 -3 58 c-2 31 1 57 5 56 4
0 64 -13 133 -28z m-910 -36 l0 -55 -84 0 -83 0 -19 47 c-11 27 -20 51 -22 55
-2 5 44 8 102 8 l106 0 0 -55z m1436 -113 c-3 -3 -68 -6 -143 -6 l-138 -1 -3
57 -3 57 143 3 143 3 3 -54 c2 -29 1 -56 -2 -59z m462 -74 l2 -178 -85 0 -85
0 0 173 c0 96 3 177 7 181 4 4 41 5 83 4 l75 -3 3 -177z m482 -28 c0 -137 -3
-180 -12 -180 -7 0 -30 3 -50 6 l-38 7 0 168 c0 185 -4 175 68 178 l32 1 0
-180z m-202 3 l-3 -168 -54 -3 -54 -3 6 98 c4 54 7 131 7 171 l0 72 50 0 50 0
-2 -167z m565 131 l77 -7 0 -164 0 -164 -107 3 -108 3 -3 168 -2 167 33 0 c19
0 68 -3 110 -6z m377 -175 l0 -159 -95 0 c-52 0 -95 3 -96 8 -2 29 -5 308 -3
312 1 3 45 4 98 2 l96 -3 0 -160z m380 96 l0 -55 -95 0 -95 0 0 55 0 55 95 0
95 0 0 -55z m-3497 -57 c-2 -56 -5 -103 -6 -104 -1 -1 -37 -5 -79 -9 l-78 -7
0 111 0 111 84 0 84 0 -5 -102z m677 2 l0 -100 -95 0 -95 0 0 93 c0 52 3 97 7
100 3 4 46 7 95 7 l88 0 0 -100z m120 51 c0 -83 -13 -161 -26 -161 -11 0 -14
22 -14 100 0 93 1 100 20 100 17 0 20 -7 20 -39z m100 -76 c0 -78 -3 -95 -15
-95 -12 0 -15 17 -15 95 0 78 3 95 15 95 12 0 15 -17 15 -95z m120 -27 c0 -78
0 -78 -26 -78 -25 0 -26 2 -20 38 3 20 6 61 6 90 0 50 1 52 20 40 17 -11 20
-24 20 -90z m420 1 l0 -89 -145 0 -145 0 0 84 c0 72 3 85 18 89 9 3 74 5 145
5 l127 0 0 -89z m2060 -79 c0 -48 -4 -72 -12 -74 -7 -3 -50 -7 -95 -10 l-83
-5 0 79 0 80 95 0 95 0 0 -70z m-2797 -74 c-4 -19 -13 -25 -41 -29 -54 -7
-230 -3 -238 6 -4 4 1 16 11 27 15 17 33 20 139 22 66 2 124 2 127 1 4 -2 4
-13 2 -27z m-697 -2 c-3 -9 -6 -22 -6 -30 0 -11 -22 -14 -110 -14 -104 0 -110
1 -110 20 0 30 32 39 139 39 81 1 92 -1 87 -15z m1444 -34 c20 -31 3 -35 -156
-35 -156 0 -159 0 -162 22 -4 28 21 32 186 29 95 -2 125 -5 132 -16z m460 -10
c0 -36 -18 -42 -110 -38 -53 2 -65 6 -68 21 -7 36 16 47 99 47 l79 0 0 -30z
m470 -4 c0 -44 -7 -46 -140 -46 -131 0 -160 4 -160 22 0 29 37 37 168 38 107
0 132 -3 132 -14z m449 -38 c5 -13 7 -26 4 -30 -2 -5 -56 -8 -119 -8 -97 0
-116 3 -121 16 -12 32 25 44 129 44 93 0 99 -1 107 -22z m300 3 c12 -8 12 -12
2 -25 -11 -13 -35 -16 -117 -16 -106 0 -123 7 -92 38 14 14 186 16 207 3z
m398 -35 l4 -29 -104 5 c-110 5 -129 10 -121 33 8 19 33 23 133 21 l84 -1 4
-29z m-2777 11 c0 -7 -6 -21 -13 -31 -13 -17 -28 -18 -182 -14 -156 4 -168 3
-173 -14 -4 -17 -19 -18 -194 -18 -196 0 -228 -6 -228 -40 0 -19 8 -20 165
-20 158 0 165 -1 165 -20 0 -11 -1 -21 -2 -22 -2 -1 -97 -4 -213 -7 -208 -6
-210 -6 -213 -28 l-3 -23 165 0 c173 0 184 -3 154 -42 -11 -14 -43 -17 -193
-21 -197 -5 -225 -10 -225 -38 0 -28 36 -33 207 -26 84 3 153 3 153 -1 -1 -37
-89 -52 -315 -52 -186 0 -215 -7 -169 -36 24 -16 52 -19 191 -22 145 -3 163
-5 163 -20 -1 -42 -5 -42 -291 -40 l-275 3 232 225 c127 124 232 231 233 238
1 8 -19 12 -69 12 -63 0 -70 2 -70 20 0 12 9 22 23 25 52 12 324 22 640 24
272 1 337 -2 337 -12z m727 -63 c3 -9 0 -20 -8 -25 -20 -13 -346 -11 -354 1
-4 6 -4 17 -1 25 4 12 37 15 181 15 152 0 176 -2 182 -16z m443 -9 l0 -26 -92
3 c-88 3 -93 4 -96 26 -3 21 -1 22 92 22 l96 0 0 -25z m458 -12 c3 -23 3 -23
-130 -23 -142 0 -171 7 -148 35 11 13 34 15 144 13 127 -3 131 -4 134 -25z
m380 -11 c85 -2 92 -4 92 -22 0 -19 -7 -20 -125 -20 -115 0 -125 2 -125 18 0
25 4 28 37 26 15 0 70 -2 121 -2z m382 -27 l0 -25 -103 0 c-57 0 -106 3 -109
6 -3 3 -4 14 -1 25 5 17 15 19 109 19 l104 0 0 -25z m-2370 -31 c11 -26 20
-48 20 -50 0 -2 -74 -4 -165 -4 -164 0 -165 0 -165 23 0 12 3 32 6 44 6 22 12
23 138 26 72 1 134 4 138 5 4 1 16 -19 28 -44z m2760 11 l0 -25 -107 6 c-60 4
-110 8 -112 10 -2 2 -1 10 2 19 5 12 26 15 112 15 l105 0 0 -25z m-2037 -56
c9 -24 16 -43 14 -44 -1 -1 -84 -5 -184 -8 l-183 -5 0 42 c0 24 3 45 6 48 3 4
79 7 168 8 l163 1 16 -42z m432 -17 l1 -43 -95 3 -96 3 -3 43 -3 43 97 -3 98
-3 1 -43z m482 22 c3 -8 1 -26 -5 -40 -11 -24 -13 -24 -147 -24 -130 0 -135 1
-135 21 0 11 5 29 10 40 10 17 22 19 141 19 108 0 131 -3 136 -16z m406 -23
c40 -1 49 -5 59 -26 21 -46 0 -55 -123 -55 -105 0 -109 1 -125 25 -28 44 7 63
106 58 19 -1 56 -2 83 -2z m350 -25 c3 -8 3 -24 0 -35 -5 -19 -12 -21 -99 -21
-82 0 -95 2 -104 19 -25 47 -17 51 94 51 80 0 105 -3 109 -14z m404 -31 l3
-35 -105 0 -104 0 -16 30 c-8 16 -15 31 -15 35 0 3 53 5 118 5 l117 0 2 -35z
m-2768 -12 c15 -13 19 -25 15 -40 -6 -23 -9 -23 -168 -23 -166 0 -186 4 -186
40 0 35 21 40 171 40 125 0 150 -3 168 -17z m716 -68 c0 -19 -8 -20 -192 -23
-182 -2 -193 -1 -193 16 0 10 3 22 7 26 4 3 90 5 192 4 178 -3 186 -4 186 -23z
m453 -2 c3 -23 2 -23 -106 -23 -93 0 -111 3 -116 17 -11 27 13 33 119 31 95
-3 100 -4 103 -25z m482 8 c0 -27 -18 -31 -158 -31 -103 0 -129 3 -144 17 -10
9 -18 20 -18 25 0 4 72 8 160 8 150 0 160 -1 160 -19z m453 -28 c4 -3 2 -12
-4 -20 -8 -9 -42 -13 -123 -13 -106 0 -136 7 -136 32 0 10 254 11 263 1z m311
-9 c12 -31 4 -34 -103 -34 -110 0 -121 4 -121 41 0 5 49 9 109 9 90 0 110 -3
115 -16z m382 -8 c37 -28 4 -37 -132 -34 -111 3 -129 5 -132 20 -4 21 16 25
144 27 73 1 105 -3 120 -13z m-2751 -37 c2 -2 6 -25 10 -50 l7 -46 -223 -6
c-122 -4 -224 -5 -227 -2 -3 3 -1 26 4 53 l9 47 145 6 c142 6 268 5 275 -2z
m1618 -46 c38 -74 39 -73 -70 -73 -54 0 -121 3 -149 6 -49 6 -52 8 -63 44 -6
20 -11 40 -11 44 0 3 63 6 140 6 l139 0 14 -27z m-935 -25 l3 -38 -166 0 -165
0 -20 33 c-11 17 -20 35 -20 40 0 4 82 6 183 5 l182 -3 3 -37z m457 6 c8 -20
15 -38 15 -40 0 -2 -45 -4 -99 -4 -95 0 -100 1 -106 23 -18 62 -25 57 79 57
l96 0 15 -36z m934 -15 c6 -18 11 -34 11 -35 0 -2 -48 -4 -107 -4 -93 0 -112
3 -133 20 -20 16 -21 19 -5 13 17 -6 18 -4 8 9 -7 8 -10 18 -6 21 3 4 55 7
114 7 l107 0 11 -31z m313 -9 l17 -30 -114 0 c-114 0 -115 0 -115 23 0 13 3
27 7 30 3 4 47 7 97 7 91 0 91 0 108 -30z m398 -10 c10 -20 8 -20 -119 -20
-101 0 -130 3 -134 14 -3 8 -3 17 0 20 4 3 59 6 124 6 108 0 119 -2 129 -20z
m720 -155 l0 -45 -1357 0 c-747 0 -1437 -2 -1533 -4 -96 -2 -686 -5 -1310 -5
l-1135 -1 -3 50 -3 50 2670 0 2671 0 0 -45z"/>
<path d="M5632 8347 c-35 -42 -58 -392 -30 -457 l15 -35 7 65 c45 420 46 473
8 427z"/>
<path d="M5165 3330 c-239 -7 -279 -12 -272 -34 11 -36 22 -36 1497 -39 1518
-3 1470 -4 1470 38 0 37 -30 38 -1260 40 -657 2 -1303 -1 -1435 -5z"/>
<path d="M8415 2907 c-195 -65 -292 -208 -302 -447 -6 -134 10 -227 54 -316
119 -243 465 -297 664 -103 50 48 79 98 111 189 29 80 36 273 13 360 -37 142
-111 236 -233 293 -59 28 -79 32 -167 34 -63 2 -115 -2 -140 -10z m211 -142
c40 -26 62 -53 89 -110 67 -142 54 -424 -25 -534 -47 -67 -146 -89 -226 -51
-72 36 -117 125 -135 271 -23 191 25 388 104 431 55 29 143 26 193 -7z"/>
<path d="M1300 2902 c0 -5 12 -22 26 -38 55 -63 55 -60 54 -396 -1 -410 -3
-431 -46 -478 -19 -21 -34 -40 -34 -44 0 -3 79 -6 175 -6 112 0 175 4 175 10
0 6 -14 23 -31 38 -37 33 -47 80 -48 215 -1 67 3 96 16 118 10 16 20 29 23 29
4 0 50 -75 103 -167 53 -93 108 -185 122 -205 l26 -38 135 0 c110 0 134 3 134
14 0 8 -17 24 -38 36 -21 12 -44 31 -52 43 -7 12 -74 125 -148 251 l-134 229
53 76 c96 139 169 230 209 262 67 54 58 59 -100 59 -77 0 -140 -1 -140 -3 0
-1 9 -20 19 -41 11 -21 17 -45 14 -54 -8 -22 -90 -143 -175 -261 l-69 -95 1
161 c2 177 13 223 64 256 14 10 26 22 26 27 0 6 -69 10 -180 10 -99 0 -180 -4
-180 -8z"/>
<path d="M2150 2896 c0 -8 8 -21 18 -28 52 -38 52 -35 52 -436 0 -396 -1 -402
-49 -446 -46 -42 -32 -46 149 -46 184 0 194 4 145 50 -37 35 -45 78 -45 243
l0 147 150 0 150 0 0 -175 0 -174 -35 -34 c-19 -19 -35 -39 -35 -46 0 -14 336
-16 344 -2 3 5 -10 28 -29 51 l-35 42 0 389 0 388 30 34 c17 19 30 40 30 46 0
8 -51 11 -170 11 -120 0 -170 -3 -170 -11 0 -6 16 -29 35 -50 l35 -39 0 -150
c0 -149 0 -150 -22 -150 -13 0 -80 -3 -150 -7 l-128 -6 0 142 c0 150 8 189 49
225 46 42 32 46 -149 46 -141 0 -170 -2 -170 -14z"/>
<path d="M3340 2903 c0 -3 11 -21 25 -39 14 -18 25 -38 25 -45 0 -20 -229
-747 -244 -777 -8 -15 -28 -40 -45 -56 -53 -51 -45 -55 92 -50 67 2 123 8 125
13 2 5 -11 22 -28 39 -16 17 -30 37 -30 44 0 8 13 52 28 98 l29 85 140 3 141
3 21 -79 c26 -98 26 -101 -4 -146 -14 -20 -25 -41 -25 -46 0 -12 337 -13 344
-2 3 5 -10 24 -28 41 -42 41 -41 37 -181 496 -64 209 -120 390 -125 403 -9 21
-14 22 -135 22 -69 0 -125 -3 -125 -7z m181 -413 c21 -74 39 -141 39 -147 0
-10 -27 -13 -100 -13 -55 0 -100 2 -100 4 0 3 16 58 36 123 20 65 43 141 51
168 15 47 16 49 25 25 6 -14 28 -86 49 -160z"/>
<path d="M4010 2899 c0 -6 16 -29 35 -51 l36 -39 -3 -457 c-3 -533 2 -505
-106 -557 -34 -16 -62 -35 -62 -40 0 -6 7 -21 16 -33 19 -27 72 -29 159 -7 94
25 158 89 185 185 8 29 13 266 19 847 1 57 4 66 36 102 19 21 35 44 35 50 0 8
-52 11 -175 11 -123 0 -175 -3 -175 -11z"/>
<path d="M4470 2896 c0 -8 14 -28 30 -44 l30 -30 0 -305 c0 -278 2 -311 20
-371 38 -122 122 -195 249 -215 185 -30 333 50 381 207 18 58 20 94 20 358 0
305 4 340 43 373 10 7 17 20 17 27 0 11 -25 14 -120 14 -136 0 -144 -5 -90
-67 l30 -34 0 -294 c0 -270 -2 -299 -20 -348 -24 -64 -51 -91 -107 -107 -80
-24 -156 9 -194 86 -24 49 -24 51 -24 361 l0 312 33 33 c17 19 32 39 32 46 0
9 -43 12 -165 12 -136 0 -165 -2 -165 -14z"/>
<path d="M5340 2902 c0 -5 12 -19 26 -33 52 -48 54 -61 54 -436 0 -208 -4
-363 -10 -385 -6 -20 -22 -46 -35 -56 -14 -11 -25 -27 -25 -36 0 -14 20 -16
165 -16 149 0 165 2 165 17 0 10 -12 27 -27 39 l-28 22 -3 162 -3 161 27 -3
c22 -2 35 -15 62 -63 109 -190 175 -294 198 -316 24 -22 34 -24 150 -27 120
-4 124 -3 124 17 0 12 -11 26 -27 35 -48 25 -88 76 -186 236 l-95 155 44 23
c50 26 107 79 129 122 45 88 24 241 -43 306 -80 78 -85 79 -389 82 -154 2
-273 -1 -273 -6z m447 -146 c80 -41 88 -183 15 -249 -29 -26 -89 -46 -139 -47
l-43 0 0 161 0 162 68 -5 c37 -3 82 -12 99 -22z"/>
<path d="M6510 2904 c0 -4 14 -22 30 -41 17 -18 30 -41 30 -49 0 -9 -22 -84
-49 -167 -27 -84 -82 -253 -121 -377 -69 -217 -73 -227 -118 -273 -60 -61 -52
-67 96 -66 100 0 112 2 112 18 0 10 -11 28 -25 41 -14 13 -25 32 -25 41 0 16
19 74 52 162 l10 27 138 0 137 0 16 -57 c32 -113 32 -136 2 -171 -49 -58 -37
-62 155 -61 95 1 173 6 176 11 4 6 -14 29 -40 51 l-45 42 -76 255 c-42 140
-99 327 -127 415 -28 88 -53 170 -55 183 -5 21 -8 22 -139 22 -74 0 -134 -3
-134 -6z m189 -404 c22 -80 41 -151 41 -158 0 -9 -28 -12 -101 -12 -91 0 -100
2 -95 18 37 133 101 320 107 310 4 -7 25 -78 48 -158z"/>
<path d="M7170 2896 c0 -7 7 -20 17 -27 9 -8 24 -32 34 -54 17 -36 19 -73 19
-397 0 -221 -4 -367 -10 -385 -6 -15 -22 -38 -37 -50 -15 -12 -24 -27 -20 -36
4 -12 32 -14 169 -10 102 2 164 7 167 14 2 6 -8 23 -22 37 -44 48 -47 64 -47
231 l0 161 150 0 150 0 0 -175 0 -175 -36 -40 c-20 -22 -35 -43 -32 -46 3 -2
83 -3 179 -2 l173 3 -39 44 -40 44 -3 361 c-2 199 0 375 3 392 3 18 19 49 35
69 17 21 30 42 30 46 0 5 -76 9 -170 9 -116 0 -170 -3 -170 -11 0 -6 16 -29
35 -52 l35 -41 0 -150 0 -151 -150 0 -150 0 0 143 c0 150 6 177 49 216 46 42
32 46 -149 46 -138 0 -170 -3 -170 -14z"/>
</g>
</svg>
