<?xml version="1.0" standalone="no"?>
<!DOCTYPE svg PUBLIC "-//W3C//DTD SVG 20010904//EN"
 "http://www.w3.org/TR/2001/REC-SVG-20010904/DTD/svg10.dtd">
<svg version="1.0" xmlns="http://www.w3.org/2000/svg"
 width="484.000000pt" height="314.000000pt" viewBox="0 0 484.000000 314.000000"
 preserveAspectRatio="xMidYMid meet">

<g transform="translate(0.000000,314.000000) scale(0.100000,-0.100000)"
fill="#FFFFFF" stroke="none">
<path d="M2478 2482 c-4 -267 -6 -279 -62 -324 -18 -15 -18 -18 -4 -18 15 0
16 -4 6 -32 -6 -18 -17 -40 -24 -49 -8 -8 -17 -30 -20 -47 -6 -29 -10 -32 -43
-33 -44 -1 -103 -21 -109 -37 -2 -7 6 -12 21 -12 35 0 37 -7 12 -58 -12 -26
-30 -69 -40 -97 -11 -27 -24 -53 -29 -57 -7 -5 -6 -11 4 -17 12 -8 11 -16 -8
-49 -12 -22 -22 -54 -22 -71 0 -17 -4 -31 -10 -31 -5 0 -10 -4 -10 -10 0 -5 7
-10 16 -10 10 0 14 -6 10 -17 -3 -10 -10 -56 -16 -102 -6 -47 -22 -123 -34
-170 -22 -82 -23 -84 -30 -51 -4 19 -10 43 -12 53 -4 11 0 17 13 18 10 0 13 3
6 6 -7 2 -13 16 -13 30 0 14 -8 38 -17 54 -15 25 -15 31 -4 38 7 5 9 10 4 12
-5 2 -23 39 -40 81 l-32 78 26 6 c25 7 25 8 8 20 -11 8 -36 14 -57 14 -37 0
-39 2 -67 62 -17 34 -27 66 -24 71 3 5 -5 19 -17 31 -19 21 -22 39 -27 151
l-6 128 29 -8 c16 -4 56 -9 89 -12 37 -3 68 -12 84 -24 13 -10 36 -19 50 -19
15 0 37 -7 49 -16 31 -21 40 -10 11 13 -13 10 -39 34 -59 54 -19 20 -49 42
-67 48 -17 7 -39 21 -48 31 -10 11 -31 22 -49 26 -17 4 -44 18 -61 32 l-30 25
-6 -202 c-5 -188 -7 -202 -27 -224 -12 -13 -22 -31 -22 -41 0 -9 -11 -42 -25
-72 -24 -52 -26 -54 -63 -54 -21 0 -46 -6 -57 -14 -17 -12 -17 -13 7 -19 l26
-7 -30 -72 c-17 -40 -35 -78 -40 -85 -6 -7 -4 -13 4 -15 10 -4 8 -11 -5 -31
-9 -14 -17 -40 -17 -57 0 -17 -5 -30 -12 -30 -10 0 -10 -2 0 -9 10 -6 11 -25
4 -87 -10 -79 -51 -258 -58 -251 -9 9 -36 126 -45 191 -6 48 -6 73 2 83 9 9 8
13 0 13 -6 0 -11 12 -11 28 0 15 -8 38 -17 52 -12 17 -13 25 -5 28 7 2 9 9 5
15 -4 7 -20 41 -34 77 -27 65 -27 65 -6 76 l20 11 -21 12 c-11 6 -37 11 -56
11 -22 0 -36 5 -36 13 -1 6 -9 30 -20 52 -11 22 -19 48 -20 57 0 9 -7 24 -15
32 -12 12 -18 47 -22 137 l-6 122 29 -8 c16 -4 54 -9 84 -12 32 -3 65 -13 79
-24 13 -10 35 -19 48 -19 13 0 33 -5 44 -10 10 -6 19 -9 19 -6 0 12 -101 106
-114 106 -8 0 -31 13 -49 30 -19 17 -43 30 -54 30 -10 0 -35 11 -54 25 l-34
26 -6 -183 c-5 -156 -9 -188 -25 -212 -10 -16 -20 -38 -21 -49 -2 -10 -10 -31
-17 -46 -8 -14 -17 -34 -20 -43 -4 -12 -16 -18 -38 -18 -18 -1 -44 -7 -58 -15
l-25 -13 26 -7 26 -7 -30 -71 c-16 -40 -34 -75 -39 -78 -6 -4 -5 -9 3 -11 12
-4 11 -10 -3 -34 -18 -32 -26 -73 -16 -89 7 -13 -9 -117 -37 -234 -18 -75 -24
-90 -30 -71 -4 13 -7 44 -7 69 1 24 -4 51 -9 58 -6 7 -9 19 -6 27 3 8 3 16 -1
18 -4 2 -15 25 -25 52 -14 39 -15 51 -5 58 17 10 -7 28 -39 28 -22 0 -53 46
-53 80 0 10 -7 23 -15 30 -8 7 -15 25 -15 41 0 16 -4 29 -10 29 -5 0 -10 -11
-10 -25 0 -14 -4 -33 -10 -43 -5 -9 -19 -38 -30 -64 -14 -33 -26 -48 -39 -48
-26 0 -51 -10 -51 -21 0 -5 7 -9 15 -9 13 0 12 -6 -5 -40 -11 -21 -20 -46 -20
-54 0 -8 -6 -17 -12 -19 -10 -4 -10 -6 0 -6 10 -1 10 -7 -1 -28 -8 -16 -15
-54 -15 -85 -1 -31 -11 -93 -22 -138 -11 -45 -25 -111 -30 -148 -6 -37 -17
-110 -25 -162 -8 -52 -14 -98 -15 -102 0 -5 -29 -8 -65 -8 l-65 0 0 -130 0
-130 2190 0 2190 0 0 130 0 130 -65 0 -64 0 -6 32 c-6 35 -19 122 -35 230 -5
37 -18 103 -29 146 -11 43 -22 112 -26 152 -3 41 -8 77 -11 82 -3 5 -8 21 -10
36 -3 15 -14 46 -24 70 -16 35 -16 42 -4 42 8 0 14 4 14 9 0 11 -25 21 -53 21
-17 0 -26 11 -40 48 -10 26 -23 55 -28 65 -6 10 -13 57 -16 104 l-6 85 34 -8
c19 -4 44 -7 57 -6 13 1 33 -4 45 -10 20 -11 87 -37 96 -38 2 0 -13 17 -34 38
-38 37 -60 51 -145 94 -25 12 -48 24 -52 26 -5 2 -8 -56 -8 -128 0 -85 -4
-139 -12 -153 -7 -12 -20 -42 -28 -67 -14 -37 -21 -45 -49 -51 -38 -8 -66 -29
-38 -29 22 0 22 1 -7 -64 -13 -30 -22 -57 -19 -59 2 -3 0 -14 -6 -25 -6 -11
-13 -56 -16 -102 -3 -45 -8 -87 -12 -93 -8 -13 -48 150 -67 273 -7 47 -10 86
-6 88 11 4 -5 68 -24 96 -9 15 -11 26 -5 28 6 2 -3 34 -20 75 -37 86 -38 93
-8 93 21 1 22 1 3 15 -11 8 -36 15 -55 15 -34 0 -38 4 -60 53 -14 28 -25 59
-26 67 0 8 -9 27 -19 42 -13 19 -19 56 -23 139 l-6 112 39 -8 c21 -4 60 -8 86
-9 28 -1 54 -8 65 -19 11 -9 35 -20 54 -23 19 -4 42 -11 52 -16 29 -15 19 -1
-39 57 -31 30 -64 55 -73 55 -10 0 -28 11 -40 24 -12 13 -36 26 -53 30 -16 3
-41 15 -55 26 -14 11 -29 20 -33 20 -4 0 -9 -82 -12 -183 -3 -152 -7 -187 -21
-207 -9 -13 -17 -30 -17 -38 0 -7 -12 -38 -26 -68 -23 -49 -28 -54 -58 -54
-18 0 -41 -7 -52 -15 -19 -14 -18 -14 4 -15 12 0 22 -1 22 -3 0 -7 -51 -133
-60 -149 -7 -12 -7 -18 0 -18 6 0 4 -12 -5 -30 -8 -16 -15 -40 -15 -54 0 -13
-6 -27 -12 -29 -10 -4 -10 -6 0 -6 15 -1 8 -94 -13 -176 -7 -27 -16 -63 -20
-80 -6 -26 -11 -16 -35 75 -34 130 -47 240 -29 240 10 0 10 3 1 12 -7 7 -12
23 -12 35 0 13 -7 35 -16 48 -13 19 -14 28 -5 39 7 8 8 16 4 18 -5 1 -16 21
-25 43 -8 22 -23 57 -32 78 l-16 37 25 0 c14 0 25 3 25 8 0 12 -53 32 -87 32
-20 0 -33 5 -33 13 0 7 -9 30 -21 51 -11 21 -19 45 -17 54 2 9 -6 26 -18 39
-23 25 -34 94 -34 211 l0 65 38 -8 c20 -5 60 -9 88 -10 36 -1 60 -8 79 -23 15
-12 40 -22 54 -22 15 0 37 -7 49 -16 37 -26 25 -7 -37 56 -33 33 -67 60 -76
60 -10 0 -33 14 -52 30 -18 17 -43 30 -54 30 -11 0 -35 11 -53 25 -18 14 -35
25 -38 25 -3 0 -7 -90 -10 -200 -4 -189 -5 -201 -26 -223 -12 -13 -20 -26 -16
-29 3 -4 -7 -34 -22 -67 -27 -58 -30 -61 -64 -61 -32 -1 -70 -18 -70 -34 0 -3
9 -6 20 -6 11 0 20 -2 20 -4 0 -2 -16 -42 -36 -87 -19 -46 -31 -85 -25 -87 5
-2 2 -17 -8 -35 -21 -37 -35 -97 -22 -97 5 0 5 -19 0 -42 -4 -24 -8 -61 -9
-82 0 -23 -4 -36 -9 -30 -13 14 -62 221 -71 299 -5 39 -11 83 -15 99 -5 19 -4
31 6 37 11 6 11 11 1 21 -6 6 -12 28 -12 48 0 19 -9 46 -20 60 -24 30 -25 40
-5 40 8 0 15 4 15 9 0 5 -7 11 -15 15 -8 3 -15 13 -15 22 0 9 -15 51 -34 94
-19 43 -31 81 -28 84 3 3 16 6 29 6 12 0 23 4 23 9 0 14 -76 41 -115 41 -22 0
-35 5 -35 13 0 7 -9 31 -21 52 -32 62 -40 95 -23 95 8 0 -1 14 -22 34 l-35 33
-6 167 c-6 159 -5 166 13 166 10 -1 30 -7 44 -15 15 -9 53 -14 96 -15 52 0 75
-4 85 -16 19 -23 64 -44 96 -44 16 0 39 -7 51 -16 20 -13 22 -13 22 0 0 8 -16
26 -36 40 -20 13 -47 40 -60 60 -17 25 -36 39 -65 46 -23 6 -51 22 -63 34 -26
28 -59 46 -84 46 -10 0 -40 16 -65 35 -25 19 -48 35 -50 35 -3 0 -6 -112 -9
-248z m62 -1625 c69 -46 75 -69 75 -282 l0 -190 -127 -3 -128 -3 0 181 c0 193
7 229 53 278 42 46 80 52 127 19z m-1275 -170 c39 -39 48 -80 43 -212 l-3 -90
-92 -3 -93 -3 0 119 c0 137 10 176 54 203 42 26 53 24 91 -14z m2563 7 c43
-30 52 -65 52 -194 l0 -121 -92 3 -93 3 0 115 c0 128 12 172 54 195 34 19 52
18 79 -1z m-3054 -126 c11 -16 16 -47 16 -105 l0 -83 -70 0 -70 0 0 75 c0 84
17 131 53 144 26 10 50 -1 71 -31z m3579 -9 c13 -25 17 -52 15 -104 l-3 -70
-67 -3 -68 -3 0 86 c0 82 1 88 29 116 36 36 67 29 94 -22z"/>
<path d="M720 1552 l0 -50 43 -8 c23 -4 51 -7 63 -5 11 1 27 -5 34 -13 7 -9
21 -16 32 -16 11 0 29 -5 41 -11 16 -8 12 -1 -13 26 -19 21 -49 43 -66 51 -17
7 -36 20 -44 28 -7 9 -19 16 -27 16 -7 0 -25 7 -38 16 l-25 16 0 -50z"/>
</g>
</svg>
