<?xml version="1.0" standalone="no"?>
<!DOCTYPE svg PUBLIC "-//W3C//DTD SVG 20010904//EN"
 "http://www.w3.org/TR/2001/REC-SVG-20010904/DTD/svg10.dtd">
<svg version="1.0" xmlns="http://www.w3.org/2000/svg"
 width="355.000000pt" height="358.000000pt" viewBox="0 0 355.000000 358.000000"
 preserveAspectRatio="xMidYMid meet">

<g fill="red"transform="translate(0.000000,358.000000) scale(0.100000,-0.100000)"
fill="#000000" stroke="none">
<path d="M1752 3548 c-5 -18 -6 -37 -1 -42 4 -5 3 -18 -2 -28 -7 -13 -7 -23 1
-33 8 -10 8 -15 -1 -20 -6 -4 -9 -19 -5 -36 3 -15 1 -31 -5 -34 -5 -4 -7 -15
-4 -26 4 -11 2 -19 -4 -19 -12 0 -15 -39 -5 -64 12 -32 24 -15 24 34 0 38 4
50 15 50 11 0 15 -11 15 -40 l0 -41 25 18 c24 18 33 43 15 43 -5 0 -7 7 -4 15
4 8 1 21 -4 28 -7 8 -7 18 -2 27 5 8 6 19 2 24 -3 6 -7 43 -8 82 -1 40 -5 77
-8 83 -14 21 -36 11 -44 -21z"/>
<path d="M1851 3479 c-30 -9 -33 -13 -27 -41 3 -17 6 -43 6 -59 0 -26 3 -29
34 -29 24 0 49 -11 80 -35 53 -40 71 -44 79 -15 3 11 1 20 -4 20 -22 0 -6 19
21 25 38 8 49 25 16 25 -49 0 -81 29 -33 31 14 0 17 2 7 6 -8 3 -31 21 -50 39
-40 38 -79 48 -129 33z"/>
<path d="M2060 3290 c0 -5 5 -10 10 -10 6 0 10 5 10 10 0 6 -4 10 -10 10 -5 0
-10 -4 -10 -10z"/>
<path d="M1825 3250 c-18 -19 -18 -20 3 -20 24 0 38 18 25 31 -6 6 -16 2 -28
-11z"/>
<path d="M1670 3210 c0 -5 7 -10 16 -10 8 0 12 5 9 10 -3 6 -10 10 -16 10 -5
0 -9 -4 -9 -10z"/>
<path d="M1730 3200 c0 -11 -5 -29 -12 -39 -11 -18 -13 -18 -24 -3 -11 15 -14
15 -23 -8 -9 -22 -10 -23 -10 -4 -1 26 -41 66 -41 41 0 -8 6 -17 14 -19 12 -3
12 -6 -1 -23 -12 -16 -14 -16 -10 -3 5 14 1 17 -21 16 -15 -1 -32 -6 -39 -11
-7 -5 -17 -6 -23 -2 -5 3 -16 -6 -22 -21 -10 -22 -10 -28 0 -32 6 -2 12 -16
12 -31 0 -39 19 -55 41 -35 23 21 62 14 74 -14 8 -19 15 -21 45 -16 44 8 51
14 17 14 -17 0 -27 5 -27 15 0 19 51 20 68 3 10 -10 14 -10 21 0 5 9 11 5 19
-13 11 -23 9 -27 -11 -35 l-22 -9 22 0 c20 -1 22 -5 17 -31 -4 -19 -2 -30 5
-30 6 0 11 -5 11 -12 0 -6 -8 -4 -19 6 -18 17 -20 17 -30 -1 -6 -10 -11 -13
-11 -6 0 6 5 15 10 18 6 3 10 14 10 23 0 13 -2 14 -9 4 -14 -22 -84 -11 -96
15 -7 17 -16 21 -38 19 -40 -5 -46 -16 -8 -16 42 0 37 -24 -7 -28 -24 -2 -34
2 -48 22 -20 32 -34 33 -34 3 0 -12 -9 -30 -20 -40 -35 -30 -26 -47 25 -45 25
0 45 6 45 12 0 6 4 5 9 -3 6 -9 19 -12 40 -8 18 4 31 2 31 -3 0 -6 -40 -10
-95 -10 -57 0 -95 4 -95 10 0 17 -18 11 -24 -7 -2 -10 -7 -28 -11 -40 -6 -20
-3 -23 23 -23 34 0 42 -14 42 -71 l0 -39 -42 -1 c-24 -1 -48 -1 -53 0 -13 1
-44 -89 -49 -139 -2 -19 -8 -48 -15 -64 -10 -24 -9 -31 6 -43 10 -8 12 -12 5
-8 -7 4 -14 -1 -18 -12 -5 -17 -37 -88 -70 -156 -8 -16 -14 -36 -14 -45 0 -9
-11 -36 -24 -58 -18 -33 -22 -51 -19 -90 4 -38 0 -58 -16 -87 -12 -21 -21 -44
-21 -52 0 -8 -11 -22 -24 -30 -21 -14 -24 -26 -29 -88 -3 -52 0 -78 10 -95 8
-13 12 -27 8 -30 -12 -12 -54 53 -75 116 -12 34 -25 60 -29 57 -5 -2 -14 -26
-21 -52 -7 -27 -17 -54 -23 -60 -5 -7 -7 -20 -3 -28 3 -10 2 -13 -5 -10 -6 4
-18 0 -28 -9 -20 -18 -19 -24 -36 183 -2 29 -11 69 -20 88 -9 18 -18 41 -20
51 -2 9 -12 44 -21 77 -9 33 -17 68 -16 78 1 15 -10 17 -76 19 l-77 1 62 6
c66 6 70 8 74 31 6 28 -12 59 -41 72 -17 7 -30 17 -30 22 0 4 -7 6 -15 3 -8
-4 -17 -2 -20 2 -2 5 6 12 19 15 49 12 39 63 -20 106 -42 31 -67 67 -60 86 8
21 53 17 87 -7 19 -13 41 -19 61 -17 l33 3 -30 17 -30 16 30 13 30 13 -28 4
c-15 2 -25 7 -22 12 7 12 -53 60 -75 60 -39 0 -50 -11 -51 -54 -1 -38 -1 -39
-9 -13 -5 16 -7 42 -5 59 2 16 -1 41 -6 56 -15 40 -31 13 -36 -60 -5 -98 -9
-116 -23 -133 -11 -13 -11 -18 -1 -24 9 -6 5 -10 -13 -15 -14 -3 -26 -13 -26
-22 0 -8 -4 -13 -9 -9 -14 8 -41 -24 -41 -49 0 -30 18 -46 53 -46 15 0 26 -4
23 -9 -3 -4 -17 -7 -32 -5 -28 3 -98 -37 -108 -61 -9 -23 6 -55 28 -60 11 -2
35 -6 51 -8 17 -2 1 -5 -34 -6 -48 -1 -62 -4 -58 -14 6 -16 -11 -107 -23 -122
-4 -5 -13 -41 -20 -80 -8 -38 -17 -74 -22 -79 -4 -6 -8 -35 -8 -65 0 -36 -5
-60 -16 -72 -11 -12 -13 -23 -7 -33 15 -27 3 -88 -18 -93 -11 -3 -19 -12 -19
-20 0 -7 -7 -25 -16 -38 -10 -15 -15 -38 -12 -60 2 -19 0 -35 -5 -35 -5 0 -7
-20 -6 -45 2 -24 0 -47 -4 -51 -4 -4 -7 -33 -7 -65 0 -47 -4 -63 -23 -82 -12
-13 -31 -34 -42 -48 -12 -13 -32 -31 -45 -40 l-24 -16 46 -31 c26 -18 53 -32
62 -32 8 0 18 -5 21 -10 3 -6 -3 -10 -14 -10 -30 0 -26 -17 8 -34 16 -9 34
-29 40 -47 15 -43 15 -371 0 -386 -6 -6 -9 -19 -7 -29 3 -18 19 -19 223 -24
l220 -6 -222 -2 c-135 -1 -224 -6 -228 -12 -4 -7 58 -10 177 -11 118 -1 169
-4 143 -9 -22 -4 -103 -9 -179 -9 -77 -1 -143 -4 -148 -7 -5 -3 -4 -12 3 -20
6 -8 8 -14 3 -15 -5 0 0 -4 11 -9 17 -7 15 -9 -12 -9 -30 -1 -33 -4 -33 -31 0
-16 -4 -30 -10 -30 -21 0 -10 -39 12 -43 13 -2 4 -5 -19 -6 -24 0 -43 -3 -43
-5 0 -2 7 -23 15 -46 19 -53 19 -50 -5 -50 -11 0 -20 -7 -20 -15 0 -12 17 -15
88 -17 l87 -2 -100 -5 c-84 -5 -100 -9 -103 -23 -3 -16 12 -18 170 -21 l173
-3 -178 -2 -178 -2 3 -27 3 -28 1673 -3 1672 -2 0 30 0 30 -162 3 -163 3 164
2 c144 2 162 4 157 18 -3 9 -6 18 -6 20 0 2 -53 5 -117 6 l-118 2 103 3 c81 3
102 7 102 18 0 8 -7 15 -16 15 -17 0 -17 2 3 77 5 21 2 23 -43 25 -37 1 -41 2
-16 5 24 3 32 9 32 24 0 10 -7 19 -15 19 -9 0 -15 10 -15 26 0 17 -6 28 -19
31 -16 4 -18 9 -10 30 5 13 9 26 9 29 0 2 -87 5 -192 5 -138 2 -176 4 -133 9
33 4 117 8 188 9 77 1 127 5 127 11 0 6 -79 11 -212 12 l-213 3 206 2 207 3 4
25 c5 23 2 25 -31 26 -31 2 -32 3 -8 6 l28 4 -1 117 c-3 279 -5 260 41 303
l41 38 -29 3 c-25 4 -26 5 -8 12 38 14 107 51 112 60 4 5 -10 23 -29 40 -20
17 -43 43 -53 59 -10 15 -24 27 -31 27 -10 0 -15 18 -16 68 -4 131 -5 147 -7
152 -2 3 -5 25 -7 49 -2 24 -9 51 -16 59 -7 8 -13 22 -13 31 0 9 -5 15 -12 14
-21 -5 -34 35 -28 87 4 37 2 52 -8 56 -9 3 -13 21 -12 57 1 29 -2 58 -8 65 -6
7 -11 25 -12 40 -3 29 -33 141 -43 157 -6 10 -10 36 -13 83 -1 20 -7 22 -63
24 -53 1 -55 2 -16 5 52 5 70 17 70 48 0 22 -28 55 -47 55 -6 0 -13 6 -16 14
-6 16 -48 18 -58 3 -3 -5 -9 -2 -12 7 -5 12 0 16 18 16 26 0 55 24 55 46 0 21
-39 56 -55 50 -8 -3 -12 0 -9 8 2 7 -4 23 -15 37 -12 13 -24 29 -28 34 -5 6
-8 42 -8 82 0 136 -33 181 -41 56 -8 -121 -11 -132 -46 -178 -19 -24 -38 -42
-41 -39 -3 3 -13 -6 -23 -21 -25 -38 -7 -75 38 -76 22 -1 26 -3 13 -6 -11 -3
-23 -10 -27 -17 -6 -8 -8 -7 -8 2 0 10 -4 10 -22 0 -43 -24 -68 -51 -68 -74 0
-28 17 -41 60 -47 28 -3 25 -4 -16 -5 l-51 -2 -10 -42 c-32 -132 -45 -175 -54
-192 -14 -24 -20 -58 -22 -118 -1 -27 -5 -48 -9 -48 -4 0 -8 -23 -10 -51 l-3
-52 -32 33 c-18 19 -33 39 -33 44 0 25 -22 86 -30 86 -5 0 -13 -12 -16 -27 -4
-16 -11 -33 -16 -40 -5 -7 -7 -16 -5 -20 3 -5 -7 -24 -22 -42 -18 -22 -30 -30
-35 -23 -4 7 -3 12 3 12 6 0 9 32 8 80 -2 71 -5 82 -30 108 -15 15 -27 34 -27
40 0 7 -7 24 -16 38 -12 17 -16 44 -15 84 1 43 -4 68 -19 95 -11 19 -20 44
-20 55 0 10 -4 21 -9 25 -5 3 -15 22 -22 43 -6 20 -17 44 -24 52 -8 8 -16 32
-20 53 -4 21 -13 37 -21 37 -19 0 -18 10 4 26 10 8 12 13 5 14 -7 0 -13 9 -13
19 0 11 -4 22 -9 25 -5 3 -7 20 -5 38 2 17 -3 42 -11 55 -9 13 -14 27 -12 31
3 4 1 17 -4 30 -6 17 -16 22 -42 22 -46 0 -57 15 -57 82 0 45 3 58 15 58 8 0
15 -7 15 -15 0 -8 5 -15 10 -15 7 0 8 14 4 38 -7 41 -15 53 -21 35 -3 -9 -33
-13 -104 -13 -86 0 -98 2 -92 16 4 10 8 12 12 5 4 -6 24 -10 44 -9 30 1 37 5
32 17 -4 13 -2 12 9 -1 13 -17 56 -24 69 -12 9 10 -12 46 -24 39 -5 -4 -10 9
-10 27 -1 23 -3 26 -6 11 -6 -31 -29 -29 -37 2 -8 31 -18 32 -31 3 -14 -31
-41 -34 -49 -6 l-7 23 -9 -22 c-5 -13 -16 -23 -24 -23 -13 0 -19 12 -36 78 -7
28 -5 32 11 32 14 0 19 -7 19 -25 0 -31 17 -33 22 -3 4 31 26 34 34 4 7 -29
24 -25 24 5 0 11 7 19 16 19 12 0 15 -7 12 -25 -4 -17 -1 -25 8 -25 8 0 14 11
14 26 0 22 4 25 21 21 15 -4 23 1 30 21 13 33 -1 87 -21 87 -8 0 -21 5 -29 10
-10 5 -16 4 -19 -4 -3 -9 -7 -9 -19 0 -11 10 -16 10 -22 0 -6 -10 -10 -9 -14
3 -8 21 -27 21 -27 -1 0 -18 -10 -13 -15 9 -10 44 -19 58 -37 58 -19 0 -19 0
0 -27 22 -32 19 -66 -4 -36 -12 17 -13 16 -14 -12 -1 -28 -2 -29 -10 -7 -5 12
-7 28 -4 35 3 8 -2 20 -11 27 -14 12 -16 11 -14 -11 1 -13 1 -33 0 -44 -1 -17
-3 -16 -16 9 -8 15 -15 37 -15 47 0 11 -4 19 -10 19 -5 0 -10 -9 -10 -20z m12
-60 c-2 -16 -6 -30 -8 -30 -2 0 -4 14 -4 30 0 17 4 30 8 30 5 0 7 -13 4 -30z
m276 -67 c-4 -22 -22 -20 -26 1 -2 10 3 16 13 16 10 0 15 -7 13 -17z m-286
-195 c-9 -9 -12 -7 -12 12 0 19 3 21 12 12 9 -9 9 -15 0 -24z m108 6 c0 -8 -4
-14 -10 -14 -5 0 -10 9 -10 21 0 11 5 17 10 14 6 -3 10 -13 10 -21z m-133 -61
c-3 -10 -5 -4 -5 12 0 17 2 24 5 18 2 -7 2 -21 0 -30z m97 29 c2 -4 -4 -8 -14
-8 -10 0 -16 4 -14 8 3 4 9 8 14 8 5 0 11 -4 14 -8z m43 -14 c-3 -8 -6 -5 -6
6 -1 11 2 17 5 13 3 -3 4 -12 1 -19z m-302 -28 c-4 -6 7 -10 24 -10 21 0 31
-5 31 -15 0 -8 -9 -15 -19 -15 -21 0 -36 -29 -22 -43 16 -16 56 -4 57 18 1 11
2 25 4 30 1 6 2 12 2 15 -1 11 72 9 79 -2 6 -9 13 -9 33 1 13 8 34 11 45 8 11
-3 22 0 25 7 3 6 5 4 4 -4 -1 -8 4 -26 10 -40 11 -25 11 -25 11 8 1 25 5 32
21 32 17 0 20 -7 20 -40 0 -29 4 -40 15 -40 11 0 15 11 15 40 0 29 4 40 15 40
15 0 19 -16 16 -52 -1 -10 4 -18 13 -18 12 0 16 10 16 35 0 33 2 35 33 35 18
0 38 -5 45 -12 13 -13 15 -82 3 -113 -7 -17 -8 -17 -15 8 -3 15 -11 27 -17 27
-7 0 -6 6 2 17 11 13 11 17 1 20 -6 3 -10 9 -6 14 3 5 0 9 -5 9 -6 0 -11 -18
-11 -40 0 -42 -22 -57 -34 -24 -6 16 -8 16 -24 0 -10 -9 -35 -16 -55 -16 -30
0 -37 4 -37 20 0 31 -28 23 -35 -10 -4 -16 -4 -34 -1 -39 4 -5 1 -13 -4 -16
-8 -5 -6 -13 6 -26 9 -10 12 -19 7 -19 -6 0 -18 10 -26 23 l-16 22 -7 -22 c-3
-13 -10 -23 -15 -23 -12 0 -11 17 1 25 8 5 7 12 -1 22 -17 20 -49 110 -41 117
3 3 -9 6 -26 6 -27 0 -32 -4 -32 -25 0 -20 5 -25 25 -25 16 0 25 -6 25 -15 0
-18 -50 -21 -68 -3 -17 17 -28 2 -12 -17 10 -12 10 -15 -4 -15 -10 0 -14 5
-11 10 3 6 -5 10 -19 10 -13 0 -36 4 -49 9 -24 9 -25 12 -16 53 12 54 17 68
24 68 4 0 3 -4 0 -10z m410 -130 c3 -5 -1 -10 -10 -10 -9 0 -13 5 -10 10 3 6
8 10 10 10 2 0 7 -4 10 -10z m-483 -32 c-9 -9 -12 -7 -12 12 0 19 3 21 12 12
9 -9 9 -15 0 -24z m628 17 c0 -8 -4 -15 -10 -15 -5 0 -10 7 -10 15 0 8 5 15
10 15 6 0 10 -7 10 -15z m-583 -117 c-2 -24 -4 -7 -4 37 0 44 2 63 4 43 2 -21
2 -57 0 -80z m351 77 c-3 -3 -9 2 -12 12 -6 14 -5 15 5 6 7 -7 10 -15 7 -18z
m-245 8 c-7 -2 -19 -2 -25 0 -7 3 -2 5 12 5 14 0 19 -2 13 -5z m334 1 c-3 -3
-12 -4 -19 -1 -8 3 -5 6 6 6 11 1 17 -2 13 -5z m-70 -45 c0 -21 -3 -26 -9 -16
-4 9 -5 22 -2 31 9 23 11 20 11 -15z m-274 4 c-7 -2 -19 -2 -25 0 -7 3 -2 5
12 5 14 0 19 -2 13 -5z m354 1 c-3 -3 -12 -4 -19 -1 -8 3 -5 6 6 6 11 1 17 -2
13 -5z m-169 -64 c5 -25 13 -53 17 -62 4 -11 3 -18 -4 -18 -6 0 -11 5 -11 10
0 16 -38 12 -47 -5 -7 -12 -10 -11 -21 5 -10 17 -10 20 3 20 9 0 15 9 15 21 0
15 5 19 15 15 8 -3 15 -1 15 4 0 6 -7 10 -15 10 -18 0 -19 14 -3 40 16 25 23
16 36 -40z m-321 34 c-3 -3 -12 -4 -19 -1 -8 3 -5 6 6 6 11 1 17 -2 13 -5z
m190 -26 c-3 -7 -5 -2 -5 12 0 14 2 19 5 13 2 -7 2 -19 0 -25z m440 26 c-3 -3
-12 -4 -19 -1 -8 3 -5 6 6 6 11 1 17 -2 13 -5z m-497 -14 c0 -5 -7 -10 -15
-10 -8 0 -15 5 -15 10 0 6 7 10 15 10 8 0 15 -4 15 -10z m366 3 c-10 -11 -36
-12 -36 -2 0 5 10 9 22 9 12 0 18 -3 14 -7z m-250 -39 c-9 -8 -16 -13 -16 -11
0 3 -3 13 -7 23 -5 13 -3 16 10 11 10 -4 17 -1 18 6 0 9 2 9 6 0 2 -7 -3 -20
-11 -29z m113 20 c12 8 15 -6 4 -17 -8 -9 -33 12 -33 27 0 6 4 5 9 -3 5 -7 14
-10 20 -7z m-372 -10 c-3 -3 -12 -4 -19 -1 -8 3 -5 6 6 6 11 1 17 -2 13 -5z
m646 -1 c-7 -2 -19 -2 -25 0 -7 3 -2 5 12 5 14 0 19 -2 13 -5z m-510 -20 c-7
-2 -21 -2 -30 0 -10 3 -4 5 12 5 17 0 24 -2 18 -5z m380 0 c-7 -2 -21 -2 -30
0 -10 3 -4 5 12 5 17 0 24 -2 18 -5z m-393 -37 c0 -3 -4 -8 -10 -11 -5 -3 -10
-1 -10 4 0 6 5 11 10 11 6 0 10 -2 10 -4z m310 -6 c0 -5 -5 -10 -11 -10 -5 0
-7 5 -4 10 3 6 8 10 11 10 2 0 4 -4 4 -10z m90 0 c0 -5 -7 -10 -15 -10 -8 0
-15 5 -15 10 0 6 7 10 15 10 8 0 15 -4 15 -10z m-280 -30 c0 -5 -2 -10 -4 -10
-2 0 -12 -3 -22 -7 -16 -6 -17 -5 -4 10 17 19 30 22 30 7z m163 -4 c4 -10 0
-12 -14 -9 -10 3 -16 9 -13 14 8 13 21 11 27 -5z m-76 -53 c8 -18 23 -35 34
-38 22 -7 26 -25 6 -25 -7 0 -24 14 -37 32 l-23 31 -19 -27 c-27 -36 -58 -53
-58 -30 0 9 9 18 20 21 22 6 49 50 51 80 0 14 2 15 6 3 3 -8 12 -29 20 -47z
m-137 37 c0 -5 -4 -10 -10 -10 -5 0 -10 5 -10 10 0 6 5 10 10 10 6 0 10 -4 10
-10z m250 0 c0 -5 -4 -10 -10 -10 -5 0 -10 5 -10 10 0 6 5 10 10 10 6 0 10 -4
10 -10z m-442 -17 c-10 -2 -28 -2 -40 0 -13 2 -5 4 17 4 22 1 32 -1 23 -4z
m125 0 c-13 -2 -33 -2 -45 0 -13 2 -3 4 22 4 25 0 35 -2 23 -4z m415 0 c-10
-2 -28 -2 -40 0 -13 2 -5 4 17 4 22 1 32 -1 23 -4z m120 0 c-10 -2 -26 -2 -35
0 -10 3 -2 5 17 5 19 0 27 -2 18 -5z m-421 -25 c-3 -8 -6 -5 -6 6 -1 11 2 17
5 13 3 -3 4 -12 1 -19z m140 0 c-3 -8 -6 -5 -6 6 -1 11 2 17 5 13 3 -3 4 -12
1 -19z m-263 -13 c-4 -8 -7 -15 -9 -15 -2 0 -5 7 -9 15 -3 9 0 15 9 15 9 0 12
-6 9 -15z m410 0 c-4 -8 -10 -12 -15 -9 -14 8 -10 24 6 24 9 0 12 -6 9 -15z
m150 0 c-4 -8 -8 -15 -10 -15 -2 0 -4 7 -4 15 0 8 4 15 10 15 5 0 7 -7 4 -15z
m-1544 -9 c0 -3 -4 -8 -10 -11 -5 -3 -10 -1 -10 4 0 6 5 11 10 11 6 0 10 -2
10 -4z m30 -21 c0 -14 -4 -25 -9 -25 -4 0 -6 11 -3 25 2 14 6 25 8 25 2 0 4
-11 4 -25z m70 15 c0 -5 -2 -10 -4 -10 -3 0 -8 5 -11 10 -3 6 -1 10 4 10 6 0
11 -4 11 -10z m647 3 c-4 -3 -2 -12 5 -20 6 -7 8 -16 5 -20 -4 -3 -2 -12 4
-20 9 -10 5 -13 -22 -13 -26 0 -30 3 -21 12 7 7 12 22 12 33 0 21 8 35 18 35
3 0 2 -3 -1 -7z m892 -65 c1 -4 -10 -7 -24 -6 -17 2 -24 7 -20 16 3 8 8 26 12
40 l6 27 13 -35 c7 -19 13 -38 13 -42z m-339 42 c0 -5 -5 -10 -11 -10 -5 0 -7
5 -4 10 3 6 8 10 11 10 2 0 4 -4 4 -10z m1031 -23 c-8 -8 -11 -7 -11 4 0 20
13 34 18 19 3 -7 -1 -17 -7 -23z m-1344 -3 c-3 -3 -12 -4 -19 -1 -8 3 -5 6 6
6 11 1 17 -2 13 -5z m400 0 c-3 -3 -12 -4 -19 -1 -8 3 -5 6 6 6 11 1 17 -2 13
-5z m-394 -41 c-7 -2 -21 -2 -30 0 -10 3 -4 5 12 5 17 0 24 -2 18 -5z m130 0
c-37 -14 -2 -23 87 -22 56 1 104 -1 107 -5 3 -3 -61 -5 -143 -4 -82 1 -132 3
-111 5 43 5 49 20 10 26 -17 2 -11 4 17 5 25 0 39 -2 33 -5z m130 0 c-7 -2
-21 -2 -30 0 -10 3 -4 5 12 5 17 0 24 -2 18 -5z m145 0 c-10 -2 -26 -2 -35 0
-10 3 -2 5 17 5 19 0 27 -2 18 -5z m982 -57 c0 -6 -8 1 -18 16 -22 33 -41 24
-52 -23 -7 -32 -8 -32 -9 -6 -1 15 8 36 21 49 l21 21 19 -23 c10 -12 18 -27
18 -34z m-2383 26 c-10 -10 -18 -32 -18 -48 l-2 -29 -4 28 c-4 25 18 67 35 67
3 0 -2 -8 -11 -18z m52 -16 c-3 -3 -11 5 -18 17 -13 21 -12 21 5 5 10 -10 16
-20 13 -22z m709 27 c-16 -2 -40 -2 -55 0 -16 2 -3 4 27 4 30 0 43 -2 28 -4z
m890 0 c-16 -2 -40 -2 -55 0 -16 2 -3 4 27 4 30 0 43 -2 28 -4z m-648 -23 c0
-6 -13 -8 -32 -5 -46 8 -48 15 -5 15 21 0 37 -5 37 -10z m410 0 c-20 -13 -47
-13 -55 0 -4 6 9 10 32 10 28 0 34 -3 23 -10z m-610 -30 c9 -1 6 -5 -8 -10
-12 -5 -39 -8 -60 -6 -20 3 -43 5 -49 5 -7 1 -13 5 -13 9 0 7 66 8 130 2z
m157 -17 c-8 -7 -37 9 -31 19 3 5 12 4 20 -3 8 -6 13 -14 11 -16z m90 5 c-3
-8 -6 -5 -6 6 -1 11 2 17 5 13 3 -3 4 -12 1 -19z m270 -10 c-3 -7 -5 -2 -5 12
0 14 2 19 5 13 2 -7 2 -19 0 -25z m357 11 c-10 -4 -46 -8 -78 -8 -78 -1 -62
17 19 21 67 3 89 -2 59 -13z m-244 7 c0 -2 -9 -6 -20 -9 -11 -3 -18 -1 -14 4
5 9 34 13 34 5z m923 -11 c-3 -9 -8 -14 -10 -11 -3 3 -2 9 2 15 9 16 15 13 8
-4z m-1163 -4 c0 -5 14 -14 30 -20 20 -7 30 -17 30 -30 0 -27 -8 -26 -32 4
-11 14 -26 25 -34 25 -9 0 -1 -13 20 -34 28 -28 43 -36 83 -39 26 -2 -24 -3
-112 -3 -88 0 -137 1 -110 3 48 4 75 21 75 47 0 6 -7 2 -15 -8 -19 -24 -30
-15 -16 13 16 28 81 62 81 42z m1307 3 c-3 -3 -12 -4 -19 -1 -8 3 -5 6 6 6 11
1 17 -2 13 -5z m-1230 -36 c-3 -8 -6 -5 -6 6 -1 11 2 17 5 13 3 -3 4 -12 1
-19z m-1387 2 c0 -5 -7 -10 -15 -10 -8 0 -15 5 -15 10 0 6 7 10 15 10 8 0 15
-4 15 -10z m950 3 c0 -5 -38 -8 -85 -9 -47 0 -85 3 -85 8 0 4 38 8 85 8 47 0
85 -3 85 -7z m150 -3 c11 -7 2 -9 -30 -9 -37 1 -41 2 -20 9 34 11 33 11 50 0z
m450 0 c11 -7 4 -10 -25 -10 -29 0 -36 3 -25 10 8 5 20 10 25 10 6 0 17 -5 25
-10z m277 3 c-9 -8 -166 -7 -174 1 -4 3 36 6 87 6 51 0 90 -3 87 -7z m798 -3
c3 -5 -3 -10 -15 -10 -12 0 -18 5 -15 10 3 6 10 10 15 10 5 0 12 -4 15 -10z
m-2448 -6 c-3 -3 -12 -4 -19 -1 -8 3 -5 6 6 6 11 1 17 -2 13 -5z m998 -14 c3
-5 1 -10 -4 -10 -6 0 -11 5 -11 10 0 6 2 10 4 10 3 0 8 -4 11 -10z m-257 -17
c-32 -2 -84 -2 -115 0 -32 2 -6 3 57 3 63 0 89 -1 58 -3z m880 0 c-32 -2 -84
-2 -115 0 -32 2 -6 3 57 3 63 0 89 -1 58 -3z m669 -25 c-3 -8 -6 -5 -6 6 -1
11 2 17 5 13 3 -3 4 -12 1 -19z m-924 5 c-7 -2 -21 -2 -30 0 -10 3 -4 5 12 5
17 0 24 -2 18 -5z m-1553 -13 c0 -5 -7 -10 -15 -10 -8 0 -15 5 -15 10 0 6 7
10 15 10 8 0 15 -4 15 -10z m880 0 c0 -5 -5 -10 -11 -10 -5 0 -7 5 -4 10 3 6
8 10 11 10 2 0 4 -4 4 -10z m865 0 c3 -5 1 -10 -4 -10 -6 0 -11 5 -11 10 0 6
2 10 4 10 3 0 8 -4 11 -10z m905 0 c0 -5 -9 -10 -21 -10 -11 0 -17 5 -14 10 3
6 13 10 21 10 8 0 14 -4 14 -10z m-1540 -32 c0 -4 -24 -8 -52 -7 -39 1 -46 3
-28 8 34 10 80 9 80 -1z m500 0 c0 -4 -25 -8 -55 -8 -30 0 -55 4 -55 8 0 5 25
8 55 8 30 0 55 -3 55 -8z m-700 -13 c0 -10 -10 -15 -30 -15 -20 0 -30 5 -30
15 0 10 10 15 30 15 20 0 30 -5 30 -15z m860 0 c0 -10 -10 -15 -30 -15 -20 0
-30 5 -30 15 0 10 10 15 30 15 20 0 30 -5 30 -15z m-303 -77 c-2 -18 -4 -6 -4
27 0 33 2 48 4 33 2 -15 2 -42 0 -60z m1068 64 c-3 -3 -11 0 -18 7 -9 10 -8
11 6 5 10 -3 15 -9 12 -12z m-2338 -14 c-3 -8 -6 -5 -6 6 -1 11 2 17 5 13 3
-3 4 -12 1 -19z m1098 12 c-3 -5 -11 -10 -16 -10 -6 0 -7 5 -4 10 3 6 11 10
16 10 6 0 7 -4 4 -10z m45 0 c0 -5 -2 -10 -4 -10 -3 0 -8 5 -11 10 -3 6 -1 10
4 10 6 0 11 -4 11 -10z m-1357 -17 c-7 -2 -19 -2 -25 0 -7 3 -2 5 12 5 14 0
19 -2 13 -5z m1087 -3 c0 -5 -7 -10 -16 -10 -8 0 -12 5 -9 10 3 6 10 10 16 10
5 0 9 -4 9 -10z m157 -67 c-2 -16 -4 -3 -4 27 0 30 2 43 4 28 2 -16 2 -40 0
-55z m338 67 c3 -5 -1 -10 -10 -10 -9 0 -13 5 -10 10 3 6 8 10 10 10 2 0 7 -4
10 -10z m1088 3 c-7 -2 -19 -2 -25 0 -7 3 -2 5 12 5 14 0 19 -2 13 -5z m-2495
-28 c4 -18 -13 -35 -36 -35 -7 0 -10 5 -6 11 3 6 0 15 -7 20 -11 7 -11 9 -1 9
7 0 15 -7 18 -15 7 -18 24 -10 24 11 0 8 -4 12 -10 9 -5 -3 -10 -1 -10 5 0 18
25 5 28 -15z m660 18 c-10 -2 -28 -2 -40 0 -13 2 -5 4 17 4 22 1 32 -1 23 -4z
m80 0 c-10 -2 -28 -2 -40 0 -13 2 -5 4 17 4 22 1 32 -1 23 -4z m289 -45 c-2
-13 -4 -5 -4 17 -1 22 1 32 4 23 2 -10 2 -28 0 -40z m240 0 c-2 -13 -4 -5 -4
17 -1 22 1 32 4 23 2 -10 2 -28 0 -40z m100 46 c-3 -3 -12 -4 -19 -1 -8 3 -5
6 6 6 11 1 17 -2 13 -5z m261 -1 c-15 -2 -42 -2 -60 0 -18 2 -6 4 27 4 33 0
48 -2 33 -4z m-521 -70 c-2 -16 -4 -5 -4 22 0 28 2 40 4 28 2 -13 2 -35 0 -50z
m93 21 c0 -19 -4 -34 -10 -34 -5 0 -10 18 -10 41 0 24 4 38 10 34 6 -3 10 -22
10 -41z m1132 11 c2 -19 0 -35 -4 -35 -4 0 -8 6 -8 13 0 9 -2 9 -8 1 -5 -9
-11 -8 -20 2 -11 12 -9 14 8 14 11 0 20 5 20 11 0 5 -4 7 -10 4 -5 -3 -10 1
-10 9 0 33 28 16 32 -19z m-1402 0 c0 -3 -14 -5 -31 -5 -27 0 -30 2 -19 15 9
11 17 12 31 4 10 -5 19 -12 19 -14z m471 -3 c-28 -4 -40 6 -21 18 9 6 20 4 29
-3 12 -10 11 -13 -8 -15z m-1578 11 c-7 -2 -19 -2 -25 0 -7 3 -2 5 12 5 14 0
19 -2 13 -5z m2374 1 c-3 -3 -12 -4 -19 -1 -8 3 -5 6 6 6 11 1 17 -2 13 -5z
m306 -1 c-7 -2 -19 -2 -25 0 -7 3 -2 5 12 5 14 0 19 -2 13 -5z m-2508 -33 c3
-5 1 -10 -4 -10 -6 0 -11 5 -11 10 0 6 2 10 4 10 3 0 8 -4 11 -10z m748 3
c-29 -2 -78 -2 -110 0 -32 2 -8 3 52 3 61 0 87 -1 58 -3z m637 -14 c0 -6 -4
-7 -10 -4 -5 3 -10 11 -10 16 0 6 5 7 10 4 6 -3 10 -11 10 -16z m288 14 c-27
-2 -69 -2 -95 0 -27 2 -5 3 47 3 52 0 74 -1 48 -3z m-1541 -9 c-3 -3 -12 -4
-19 -1 -8 3 -5 6 6 6 11 1 17 -2 13 -5z m763 2 c0 -3 -4 -8 -10 -11 -5 -3 -10
-1 -10 4 0 6 5 11 10 11 6 0 10 -2 10 -4z m527 -18 c-3 -8 -6 -5 -6 6 -1 11 2
17 5 13 3 -3 4 -12 1 -19z m1100 16 c-3 -3 -12 -4 -19 -1 -8 3 -5 6 6 6 11 1
17 -2 13 -5z m-1894 -21 c-13 -2 -35 -2 -50 0 -16 2 -5 4 22 4 28 0 40 -2 28
-4z m-813 -23 c0 -5 -4 -10 -10 -10 -5 0 -10 5 -10 10 0 6 5 10 10 10 6 0 10
-4 10 -10z m1423 3 c-46 -2 -120 -2 -165 0 -46 1 -9 3 82 3 91 0 128 -2 83 -3z
m1267 -3 c0 -5 -4 -10 -10 -10 -5 0 -10 5 -10 10 0 6 5 10 10 10 6 0 10 -4 10
-10z m-1390 -31 c0 -5 -35 -8 -77 -8 -60 2 -69 3 -38 8 64 10 115 10 115 0z
m-202 -6 c-10 -2 -28 -2 -40 0 -13 2 -5 4 17 4 22 1 32 -1 23 -4z m389 0 c-20
-2 -52 -2 -70 0 -17 2 0 4 38 4 39 0 53 -2 32 -4z m136 0 c-13 -2 -33 -2 -45
0 -13 2 -3 4 22 4 25 0 35 -2 23 -4z m-1426 -65 c9 -10 13 -21 10 -24 -3 -4
-14 8 -25 25 l-19 31 -22 -30 c-19 -27 -24 -29 -36 -16 -19 19 -19 27 0 19 19
-7 55 23 56 46 0 9 4 6 10 -9 6 -13 17 -33 26 -42z m20 40 c-3 -8 -6 -5 -6 6
-1 11 2 17 5 13 3 -3 4 -12 1 -19z m2350 0 c-3 -8 -6 -5 -6 6 -1 11 2 17 5 13
3 -3 4 -12 1 -19z m-1221 -15 c-6 -22 0 -32 38 -68 32 -29 46 -49 45 -66 -1
-22 -2 -22 -7 -4 -10 29 -33 58 -59 72 -19 11 -28 10 -57 -5 -20 -9 -36 -21
-36 -25 0 -12 -30 -40 -30 -29 0 16 41 62 55 62 18 0 38 37 31 57 -7 17 1 33
16 33 6 0 8 -10 4 -27z m-241 7 c4 -6 -10 -10 -34 -10 -23 0 -41 5 -41 10 0 6
15 10 34 10 19 0 38 -4 41 -10z m540 0 c4 -6 -10 -10 -35 -10 -25 0 -39 4 -35
10 3 6 19 10 35 10 16 0 32 -4 35 -10z m875 0 c0 -5 12 -16 26 -23 20 -10 23
-16 14 -22 -8 -5 -19 1 -31 16 l-17 23 -21 -24 c-25 -30 -28 -18 -3 15 18 25
32 32 32 15z m-1262 -7 c-21 -2 -57 -2 -80 0 -24 2 -7 4 37 4 44 0 63 -2 43
-4z m240 0 c-21 -2 -57 -2 -80 0 -24 2 -7 4 37 4 44 0 63 -2 43 -4z m-1510
-10 c-10 -2 -26 -2 -35 0 -10 3 -2 5 17 5 19 0 27 -2 18 -5z m2735 0 c-7 -2
-21 -2 -30 0 -10 3 -4 5 12 5 17 0 24 -2 18 -5z m-1767 -80 c4 -30 2 -32 -26
-31 -27 1 -45 18 -19 18 6 0 9 9 6 20 -3 11 -1 23 4 26 5 3 9 15 10 27 0 21 1
21 10 -3 6 -14 13 -39 15 -57z m-701 57 c3 -5 2 -10 -4 -10 -5 0 -13 5 -16 10
-3 6 -2 10 4 10 5 0 13 -4 16 -10z m998 -7 c-18 -2 -48 -2 -65 0 -18 2 -4 4
32 4 36 0 50 -2 33 -4z m234 0 c-20 -2 -52 -2 -70 0 -17 2 0 4 38 4 39 0 53
-2 32 -4z m270 -35 c-3 -10 -1 -21 4 -24 17 -10 -2 -24 -33 -24 -30 0 -30 1
-14 19 12 13 14 20 5 23 -9 3 -8 9 2 25 10 17 16 19 27 11 7 -7 11 -20 9 -30z
m858 32 c3 -5 -1 -10 -9 -10 -9 0 -16 5 -16 10 0 6 4 10 9 10 6 0 13 -4 16
-10z m-2538 -6 c-3 -3 -12 -4 -19 -1 -8 3 -5 6 6 6 11 1 17 -2 13 -5z m1006
-1 c-13 -2 -35 -2 -50 0 -16 2 -5 4 22 4 28 0 40 -2 28 -4z m565 0 c-10 -2
-28 -2 -40 0 -13 2 -5 4 17 4 22 1 32 -1 23 -4z m-575 -30 c-13 -2 -35 -2 -50
0 -16 2 -5 4 22 4 28 0 40 -2 28 -4z m140 0 c-13 -2 -33 -2 -45 0 -13 2 -3 4
22 4 25 0 35 -2 23 -4z m290 0 c-13 -2 -33 -2 -45 0 -13 2 -3 4 22 4 25 0 35
-2 23 -4z m145 0 c-16 -2 -40 -2 -55 0 -16 2 -3 4 27 4 30 0 43 -2 28 -4z
m-1559 -20 c0 -5 -4 -17 -9 -28 -8 -19 -9 -19 -9 2 -1 12 -7 24 -13 26 -7 3
-3 6 10 6 12 1 22 -2 21 -6z m115 -62 c-4 -3 -9 0 -12 8 -2 7 -13 22 -22 31
-10 10 -16 21 -13 24 4 3 17 -9 29 -26 13 -17 21 -34 18 -37z m2431 59 c3 -6
-1 -7 -9 -4 -11 4 -19 -2 -25 -17 -10 -24 -10 -24 -10 4 -1 20 4 27 18 27 11
0 23 -4 26 -10z m-1277 -12 c15 -15 16 -31 1 -22 -8 5 -10 -4 -7 -30 3 -30 1
-36 -14 -36 -10 0 -18 5 -18 10 0 6 5 10 10 10 6 0 10 7 10 16 0 8 -4 13 -9 9
-5 -3 -13 0 -17 6 -4 8 -3 9 4 5 7 -4 12 -3 12 3 0 5 -5 13 -11 17 -8 4 -7 9
2 15 18 12 23 11 37 -3z m1167 2 c3 -6 -1 -7 -9 -4 -10 4 -16 1 -16 -7 0 -7
-3 -10 -6 -6 -7 7 4 27 16 27 5 0 12 -4 15 -10z m-2585 -21 c0 -6 -4 -7 -10
-4 -5 3 -10 11 -10 16 0 6 5 7 10 4 6 -3 10 -11 10 -16z m2807 -1 c-3 -8 -6
-5 -6 6 -1 11 2 17 5 13 3 -3 4 -12 1 -19z m-2609 -8 c-7 -10 -14 -17 -17 -15
-4 4 18 35 25 35 2 0 -1 -9 -8 -20z m1074 5 c16 -21 5 -25 -72 -25 -62 0 -80
3 -80 14 0 8 6 17 13 20 20 9 132 2 139 -9z m396 3 c23 -23 11 -28 -72 -28
-79 0 -84 1 -79 20 5 17 14 20 72 20 39 0 72 -5 79 -12z m947 -7 c3 -5 1 -12
-4 -15 -5 -3 -11 1 -15 9 -6 16 9 21 19 6z m-2045 -11 c0 -5 -4 -10 -10 -10
-5 0 -10 5 -10 10 0 6 5 10 10 10 6 0 10 -4 10 -10z m1675 0 c3 -5 1 -10 -4
-10 -6 0 -11 5 -11 10 0 6 2 10 4 10 3 0 8 -4 11 -10z m-1208 -7 c-20 -2 -52
-2 -70 0 -17 2 0 4 38 4 39 0 53 -2 32 -4z m320 -30 c-3 -10 -5 -4 -5 12 0 17
2 24 5 18 2 -7 2 -21 0 -30z m466 30 c-18 -2 -48 -2 -65 0 -18 2 -4 4 32 4 36
0 50 -2 33 -4z m-1823 -13 c0 -5 -5 -10 -11 -10 -5 0 -7 5 -4 10 3 6 8 10 11
10 2 0 4 -4 4 -10z m1450 -16 c0 -22 -16 -17 -17 6 -1 11 2 18 8 15 5 -4 9
-13 9 -21z m1365 16 c3 -5 -1 -10 -10 -10 -9 0 -13 5 -10 10 3 6 8 10 10 10 2
0 7 -4 10 -10z m-518 -6 c-3 -3 -12 -4 -19 -1 -8 3 -5 6 6 6 11 1 17 -2 13 -5z
m-1060 -10 c13 -4 20 -11 16 -20 -4 -10 -24 -14 -74 -14 -38 0 -69 2 -69 4 0
2 -3 11 -6 20 -5 14 3 16 52 16 33 0 69 -3 81 -6z m451 -8 c14 -15 -18 -26
-72 -26 -58 0 -86 11 -86 33 0 10 148 2 158 -7z m-1439 -30 c17 -18 22 -33 19
-62 -4 -56 -32 -53 -36 4 -4 55 -19 54 -28 -3 -9 -60 -34 -62 -34 -3 0 29 7
49 22 65 27 29 29 29 57 -1z m711 16 c0 -4 -15 -9 -32 -10 -25 -2 -29 0 -18 8
18 12 50 13 50 2z m40 -2 c0 -5 -4 -10 -10 -10 -5 0 -10 5 -10 10 0 6 5 10 10
10 6 0 10 -4 10 -10z m775 0 c3 -5 1 -10 -4 -10 -6 0 -11 5 -11 10 0 6 2 10 4
10 3 0 8 -4 11 -10z m30 0 c3 -5 1 -10 -4 -10 -6 0 -11 5 -11 10 0 6 2 10 4
10 3 0 8 -4 11 -10z m35 0 c0 -5 -4 -10 -10 -10 -5 0 -10 5 -10 10 0 6 5 10
10 10 6 0 10 -4 10 -10z m500 -31 c0 -11 -4 -19 -10 -19 -5 0 -10 5 -10 10 0
6 -5 10 -11 10 -5 0 -7 -4 -4 -10 3 -5 2 -10 -3 -10 -19 0 -20 13 -4 35 19 26
42 17 42 -16z m258 25 c18 -12 22 -25 22 -65 0 -37 -4 -49 -15 -49 -11 0 -15
12 -15 45 0 33 -4 45 -15 45 -11 0 -15 -12 -15 -45 0 -33 -4 -45 -15 -45 -22
0 -20 87 2 112 20 22 23 22 51 2z m-2588 -4 c0 -5 -9 -10 -21 -10 -11 0 -17
-4 -14 -10 3 -5 1 -10 -4 -10 -13 0 -13 3 -5 24 7 17 44 22 44 6z m488 -2 c21
-21 13 -38 -18 -38 -33 0 -35 3 -20 31 12 22 21 24 38 7z m570 5 c-10 -2 -26
-2 -35 0 -10 3 -2 5 17 5 19 0 27 -2 18 -5z m363 -43 c9 -8 20 -26 24 -40 6
-23 4 -22 -24 10 l-31 35 -30 -33 -31 -33 7 28 c4 15 16 34 26 41 10 7 18 21
18 30 1 14 2 14 12 -3 6 -11 19 -27 29 -35z m109 -15 c0 -5 -8 2 -18 18 -9 15
-20 27 -24 27 -5 0 -8 6 -8 13 1 6 12 -1 25 -18 14 -16 25 -34 25 -40z m203
58 c-7 -2 -19 -2 -25 0 -7 3 -2 5 12 5 14 0 19 -2 13 -5z m144 1 c-3 -3 -12
-4 -19 -1 -8 3 -5 6 6 6 11 1 17 -2 13 -5z m938 -13 c0 -8 -10 -15 -22 -16
-22 -2 -31 14 -16 29 11 11 38 2 38 -13z m-2705 -52 c0 -27 -4 -49 -10 -49 -5
0 -10 25 -10 56 0 34 4 53 10 49 6 -3 10 -28 10 -56z m538 49 c5 -7 13 -24 17
-38 7 -22 6 -23 -8 -12 -9 8 -26 11 -39 7 -16 -4 -19 -3 -9 3 9 7 10 11 2 17
-9 5 -9 10 0 21 14 17 24 18 37 2z m1542 -47 c0 -10 -3 -12 -8 -6 -9 14 -55
17 -63 4 -4 -7 -9 -4 -12 6 -4 9 -3 13 3 10 6 -3 10 3 10 14 0 10 6 21 13 24
16 6 57 -32 57 -52z m500 3 c0 -34 -4 -53 -10 -49 -5 3 -10 28 -10 56 0 27 5
49 10 49 6 0 10 -25 10 -56z m-1500 20 c0 -2 -9 -4 -21 -4 -11 0 -18 4 -14 10
5 8 35 3 35 -6z m73 -4 c-5 -19 -23 -29 -23 -12 0 7 20 32 26 32 1 0 0 -9 -3
-20z m357 5 c11 -13 8 -15 -15 -15 -23 0 -26 2 -15 15 7 8 14 15 15 15 1 0 8
-7 15 -15z m-540 -23 c0 -12 -177 -13 -204 -2 -14 6 19 9 92 9 61 1 112 -3
112 -7z m826 1 c-11 -11 -215 -13 -222 -2 -3 5 45 9 112 9 65 0 114 -3 110 -7z
m-1903 -10 c-13 -2 -33 -2 -45 0 -13 2 -3 4 22 4 25 0 35 -2 23 -4z m490 0
c-13 -2 -35 -2 -50 0 -16 2 -5 4 22 4 28 0 40 -2 28 -4z m240 0 c-7 -2 -21 -2
-30 0 -10 3 -4 5 12 5 17 0 24 -2 18 -5z m447 -9 c0 -2 -9 -4 -20 -4 -11 0
-20 4 -20 9 0 5 9 7 20 4 11 -3 20 -7 20 -9z m220 2 c0 -8 3 -22 7 -32 4 -12
3 -15 -6 -10 -6 4 -18 2 -26 -4 -10 -8 -15 -9 -15 -2 0 6 5 14 11 17 6 4 8 13
5 20 -5 14 2 25 16 25 4 0 8 -6 8 -14z m90 -24 c0 -21 -2 -24 -10 -12 -13 20
-13 53 0 45 6 -3 10 -18 10 -33z m150 29 c0 -11 -49 -21 -55 -11 -3 5 1 11 7
13 21 9 48 8 48 -2z m427 3 c-3 -3 -12 -4 -19 -1 -8 3 -5 6 6 6 11 1 17 -2 13
-5z m266 -1 c-13 -2 -35 -2 -50 0 -16 2 -5 4 22 4 28 0 40 -2 28 -4z m490 0
c-13 -2 -33 -2 -45 0 -13 2 -3 4 22 4 25 0 35 -2 23 -4z m-1520 -33 c-6 -22
-7 -22 -13 -4 -4 10 -2 22 4 26 15 10 16 6 9 -22z m-803 6 c0 -2 -15 -6 -34
-8 -19 -2 -32 0 -30 4 5 8 64 12 64 4z m1840 -6 c0 -5 -2 -10 -4 -10 -3 0 -8
5 -11 10 -3 6 -1 10 4 10 6 0 11 -4 11 -10z m-1680 -45 c0 -7 -26 -35 -33 -35
-11 0 -15 45 -6 57 9 10 14 10 25 -2 8 -7 14 -16 14 -20z m1494 19 c9 -3 16
-10 16 -16 0 -10 -30 -43 -33 -37 -1 2 -7 14 -14 26 -10 17 -10 23 0 26 7 3
13 6 14 6 1 1 8 -2 17 -5z m164 -24 c-1 -35 -18 -41 -18 -7 0 21 7 37 16 37 1
0 2 -13 2 -30z m-1838 -5 c0 -33 -25 -33 -26 0 -1 15 3 25 12 25 8 0 14 -10
14 -25z m-502 8 c-10 -2 -26 -2 -35 0 -10 3 -2 5 17 5 19 0 27 -2 18 -5z m235
0 c-23 -2 -64 -2 -90 0 -26 2 -7 3 42 3 50 0 71 -1 48 -3z m1087 -3 c0 -5 -7
-10 -15 -10 -8 0 -15 5 -15 10 0 6 7 10 15 10 8 0 15 -4 15 -10z m110 0 c0 -5
-2 -10 -4 -10 -3 0 -8 5 -11 10 -3 6 -1 10 4 10 6 0 11 -4 11 -10z m90 0 c0
-5 -7 -10 -15 -10 -8 0 -15 5 -15 10 0 6 7 10 15 10 8 0 15 -4 15 -10z m740 0
c0 -5 -4 -10 -10 -10 -5 0 -10 5 -10 10 0 6 5 10 10 10 6 0 10 -4 10 -10z
m418 3 c-15 -2 -42 -2 -60 0 -18 2 -6 4 27 4 33 0 48 -2 33 -4z m170 0 c-10
-2 -26 -2 -35 0 -10 3 -2 5 17 5 19 0 27 -2 18 -5z m-1790 -10 c-26 -2 -71 -2
-100 0 -29 2 -8 3 47 3 55 0 79 -1 53 -3z m130 0 c-10 -2 -26 -2 -35 0 -10 3
-2 5 17 5 19 0 27 -2 18 -5z m69 1 c-3 -3 -12 -4 -19 -1 -8 3 -5 6 6 6 11 1
17 -2 13 -5z m320 0 c-3 -3 -12 -4 -19 -1 -8 3 -5 6 6 6 11 1 17 -2 13 -5z
m81 -1 c-10 -2 -26 -2 -35 0 -10 3 -2 5 17 5 19 0 27 -2 18 -5z m200 0 c-26
-2 -71 -2 -100 0 -29 2 -8 3 47 3 55 0 79 -1 53 -3z m52 -23 c10 -6 -166 -9
-505 -7 l-520 2 485 5 c267 3 494 6 505 7 11 2 27 -2 35 -7z m687 -47 c-3 -10
-5 -2 -5 17 0 19 2 27 5 18 2 -10 2 -26 0 -35z m-2370 0 c-3 -10 -5 -4 -5 12
0 17 2 24 5 18 2 -7 2 -21 0 -30z m83 10 c-1 -24 -2 -26 -11 -10 -5 9 -7 22
-4 27 10 17 15 11 15 -17z m350 -18 c8 -2 -13 -3 -47 -3 -34 1 -60 4 -58 7 3
6 75 4 105 -4z m417 -17 c-3 -7 -5 -2 -5 12 0 14 2 19 5 13 2 -7 2 -19 0 -25z
m50 0 c-3 -7 -5 -2 -5 12 0 14 2 19 5 13 2 -7 2 -19 0 -25z m150 0 c-3 -7 -5
-2 -5 12 0 14 2 19 5 13 2 -7 2 -19 0 -25z m160 0 c-3 -7 -5 -2 -5 12 0 14 2
19 5 13 2 -7 2 -19 0 -25z m933 18 c8 -2 -32 -4 -90 -3 -58 0 -91 3 -75 6 28
6 132 4 165 -3z m-2403 -2 c-3 -3 -12 -4 -19 -1 -8 3 -5 6 6 6 11 1 17 -2 13
-5z m60 0 c-3 -3 -12 -4 -19 -1 -8 3 -5 6 6 6 11 1 17 -2 13 -5z m106 -1 c-13
-2 -33 -2 -45 0 -13 2 -3 4 22 4 25 0 35 -2 23 -4z m390 0 c-13 -2 -35 -2 -50
0 -16 2 -5 4 22 4 28 0 40 -2 28 -4z m964 -15 c-3 -8 -6 -5 -6 6 -1 11 2 17 5
13 3 -3 4 -12 1 -19z m57 7 c3 -8 1 -15 -4 -15 -6 0 -10 7 -10 15 0 8 2 15 4
15 2 0 6 -7 10 -15z m156 0 c0 -8 -4 -15 -10 -15 -5 0 -7 7 -4 15 4 8 8 15 10
15 2 0 4 -7 4 -15z m137 -7 c-3 -8 -6 -5 -6 6 -1 11 2 17 5 13 3 -3 4 -12 1
-19z m896 15 c-13 -2 -35 -2 -50 0 -16 2 -5 4 22 4 28 0 40 -2 28 -4z m134 1
c-3 -3 -12 -4 -19 -1 -8 3 -5 6 6 6 11 1 17 -2 13 -5z m-1882 -14 c3 -5 1 -10
-4 -10 -6 0 -11 5 -11 10 0 6 2 10 4 10 3 0 8 -4 11 -10z m400 0 c3 -5 1 -10
-4 -10 -6 0 -11 5 -11 10 0 6 2 10 4 10 3 0 8 -4 11 -10z m210 0 c3 -5 1 -10
-4 -10 -6 0 -11 5 -11 10 0 6 2 10 4 10 3 0 8 -4 11 -10z m50 0 c3 -5 1 -10
-4 -10 -6 0 -11 5 -11 10 0 6 2 10 4 10 3 0 8 -4 11 -10z m295 0 c0 -5 -5 -10
-11 -10 -5 0 -7 5 -4 10 3 6 8 10 11 10 2 0 4 -4 4 -10z m-1302 -17 c-38 -2
-98 -2 -135 0 -38 2 -7 3 67 3 74 0 105 -1 68 -3z m1715 0 c-23 -2 -64 -2 -90
0 -26 2 -7 3 42 3 50 0 71 -1 48 -3z m-665 -20 c-152 -2 -404 -2 -560 0 -156
1 -31 2 277 2 308 0 435 -1 283 -2z m667 -23 c3 -5 1 -10 -4 -10 -6 0 -11 5
-11 10 0 6 2 10 4 10 3 0 8 -4 11 -10z m-328 -27 c38 -17 16 -18 -622 -18
-625 0 -659 1 -626 17 32 15 97 16 622 17 538 1 590 0 626 -16z m-1322 -13
c12 -5 -50 -9 -160 -9 -120 -1 -175 3 -165 9 18 12 297 12 325 0z m1730 0 c4
-7 -56 -10 -172 -10 -119 0 -173 4 -163 10 20 13 327 13 335 0z m-1650 -45
c26 -12 1 -14 -215 -15 l-245 -1 30 -26 30 -25 -40 22 c-22 13 -44 27 -49 31
-19 17 66 24 319 27 100 1 149 -3 170 -13z m1710 2 l27 -14 -38 -22 c-38 -22
-38 -22 -20 -2 l19 21 -214 0 c-118 0 -225 3 -239 7 l-25 7 25 5 c13 3 117 7
231 9 164 3 213 1 234 -11z m-1082 -12 c4 -8 3 -16 -1 -19 -4 -3 -9 4 -9 15
-2 23 3 25 10 4z m-1336 -22 c-4 -3 -2 -12 4 -20 9 -10 8 -13 -5 -13 -9 0 -16
6 -16 13 0 14 9 27 18 27 3 0 2 -3 -1 -7z m96 -54 c-16 -16 -29 -29 -31 -29
-5 0 9 23 27 44 15 18 15 19 -7 13 -28 -7 -52 1 -52 15 0 6 6 5 15 -2 12 -10
15 -10 15 3 0 14 3 14 30 0 l30 -15 -27 -29z m2503 37 c-1 -19 -4 -22 -14 -13
-10 8 -16 7 -23 -4 -7 -12 -9 -12 -9 1 0 8 10 20 23 26 12 7 23 12 23 13 1 0
1 -10 0 -23z m82 -5 c4 -11 -2 -12 -24 -7 -43 11 -51 24 -13 22 18 -1 35 -8
37 -15z m-1329 -12 c4 -12 2 -12 -13 0 -9 8 -16 10 -15 5 3 -18 -1 -25 -11
-19 -8 5 -7 11 1 21 14 17 31 14 38 -7z m-1400 -15 c3 -16 1 -17 -13 -5 -19
16 -21 34 -3 29 6 -3 14 -13 16 -24z m1798 4 c-3 -8 -6 -5 -6 6 -1 11 2 17 5
13 3 -3 4 -12 1 -19z m43 7 c0 -8 -4 -15 -10 -15 -5 0 -7 7 -4 15 4 8 8 15 10
15 2 0 4 -7 4 -15z m939 -11 c-14 -18 -24 -11 -15 11 3 9 11 13 16 10 8 -5 7
-11 -1 -21z m-1629 1 c10 -12 10 -15 -4 -15 -9 0 -16 7 -16 15 0 8 2 15 4 15
2 0 9 -7 16 -15z m40 11 c0 -3 -4 -8 -10 -11 -5 -3 -10 -1 -10 4 0 6 5 11 10
11 6 0 10 -2 10 -4z m58 -20 c-40 -30 -10 -35 45 -7 20 10 34 14 31 9 -9 -15
-70 -38 -99 -38 -15 0 -24 -4 -20 -10 3 -5 1 -10 -4 -10 -6 0 -11 5 -11 10 0
14 -27 12 -33 -2 -3 -8 -6 -6 -6 5 -1 17 14 22 53 19 12 -2 16 3 13 12 -4 10
2 16 16 19 12 2 24 5 27 5 3 1 -3 -5 -12 -12z m192 6 c0 -5 10 -14 23 -20 12
-6 17 -11 11 -11 -7 -1 -22 8 -35 19 -13 10 -18 19 -11 20 6 0 12 -4 12 -8z
m95 -1 c11 -2 15 -5 8 -8 -20 -7 -15 -23 7 -23 14 0 18 -5 13 -17 -4 -11 -8
-12 -11 -5 -2 7 -17 12 -33 12 -16 0 -29 5 -29 11 0 7 -7 17 -16 23 -16 12 -4
13 61 7z m95 -1 c0 -5 -7 -10 -16 -10 -8 0 -12 5 -9 10 3 6 10 10 16 10 5 0 9
-4 9 -10z m-1675 -10 c3 -6 -4 -10 -17 -10 -18 0 -20 2 -8 10 19 12 18 12 25
0z m2685 -10 c6 -11 8 -20 6 -20 -3 0 -10 9 -16 20 -6 11 -8 20 -6 20 3 0 10
-9 16 -20z m40 10 c0 -5 -5 -10 -11 -10 -5 0 -7 5 -4 10 3 6 8 10 11 10 2 0 4
-4 4 -10z m150 -6 c0 -2 -9 -4 -21 -4 -11 0 -18 4 -14 10 5 8 35 3 35 -6z
m-2740 -4 c-13 -9 -13 -11 0 -20 9 -6 10 -10 3 -10 -15 0 -26 17 -18 30 3 6
12 10 18 10 7 0 6 -4 -3 -10z m487 -6 c-16 -8 -34 -13 -40 -10 -7 2 -4 5 6 5
10 1 15 6 12 11 -4 6 6 10 22 10 l28 -1 -28 -15z m1608 6 c-3 -5 -12 -7 -20
-3 -21 7 -19 13 6 13 11 0 18 -4 14 -10z m-2155 -10 c0 -5 -5 -10 -11 -10 -5
0 -7 5 -4 10 3 6 8 10 11 10 2 0 4 -4 4 -10z m948 3 c-21 -2 -55 -2 -75 0 -21
2 -4 4 37 4 41 0 58 -2 38 -4z m869 0 c-20 -2 -52 -2 -70 0 -17 2 0 4 38 4 39
0 53 -2 32 -4z m-198 -31 c-10 -17 -10 -25 4 -46 21 -31 22 -42 3 -27 -10 8
-16 9 -21 1 -3 -5 -11 -10 -16 -10 -6 0 -4 7 5 15 8 9 12 23 9 31 -5 15 16 68
24 60 3 -2 -1 -13 -8 -24z m-529 -26 c0 -17 6 -38 13 -45 10 -11 8 -11 -10 -2
-16 8 -23 8 -23 1 0 -6 -5 -8 -11 -5 -7 5 -5 13 7 26 11 12 14 27 10 44 -4 17
-3 24 4 20 5 -3 10 -21 10 -39z m-926 -5 c-10 -17 -24 -31 -32 -31 -7 0 -3 10
13 25 14 14 25 31 25 37 0 6 3 9 6 5 3 -3 -2 -19 -12 -36z m446 24 c8 -9 8
-15 2 -15 -6 0 -12 4 -14 10 -2 6 -15 3 -32 -6 -30 -15 -30 -15 -11 6 22 24
38 25 55 5z m967 9 c-3 -3 -12 -4 -19 -1 -8 3 -5 6 6 6 11 1 17 -2 13 -5z
m557 -9 c16 -12 17 -15 4 -15 -9 0 -19 6 -22 13 -5 10 -7 10 -12 0 -3 -7 -13
-13 -22 -13 -13 0 -12 3 4 15 10 8 21 14 24 14 3 0 14 -6 24 -14z m-1167 -13
c6 -4 -24 -7 -67 -7 -43 0 -73 3 -67 7 7 4 37 8 67 8 30 0 60 -4 67 -8z m205
-11 c8 12 9 12 6 0 -2 -8 -19 -15 -38 -17 -30 -2 -31 -2 -12 6 12 5 23 15 23
22 1 7 4 4 6 -6 4 -15 7 -16 15 -5z m401 1 c4 8 6 7 6 -4 1 -11 -6 -18 -18
-18 -11 0 -21 -6 -24 -12 -2 -7 -4 1 -3 19 1 29 3 30 17 17 14 -12 18 -13 22
-2z m287 8 c10 -7 -13 -10 -75 -9 -59 0 -83 3 -70 9 28 12 127 12 145 0z m698
-19 c12 -10 22 -24 22 -30 0 -13 -11 -4 -39 32 -18 22 -10 22 17 -2z m-2364
-7 c3 -8 2 -12 -4 -9 -6 3 -10 10 -10 16 0 14 7 11 14 -7z m294 9 c-10 -2 -26
-2 -35 0 -10 3 -2 5 17 5 19 0 27 -2 18 -5z m872 -24 c0 -5 -4 -9 -10 -9 -5 0
-10 7 -10 16 0 8 5 12 10 9 6 -3 10 -10 10 -16z m52 -13 c7 4 8 2 4 -4 -13
-21 -26 -13 -25 16 2 23 2 24 6 4 3 -13 9 -19 15 -16z m744 -23 c-3 -3 -13 3
-23 13 -16 16 -18 16 -21 1 -2 -11 -12 -16 -28 -15 l-24 2 28 26 27 25 23 -24
c13 -13 21 -25 18 -28z m-2139 41 c-3 -3 -12 -4 -19 -1 -8 3 -5 6 6 6 11 1 17
-2 13 -5z m586 -30 c-3 -8 -9 -14 -14 -14 -4 0 -5 8 -2 17 7 17 6 17 -20 0
-33 -21 -36 -12 -4 13 24 20 50 10 40 -16z m1184 30 c-3 -3 -12 -4 -19 -1 -8
3 -5 6 6 6 11 1 17 -2 13 -5z m40 0 c-3 -3 -12 -4 -19 -1 -8 3 -5 6 6 6 11 1
17 -2 13 -5z m870 0 c-3 -3 -12 -4 -19 -1 -8 3 -5 6 6 6 11 1 17 -2 13 -5z
m-1407 -24 c6 -11 8 -20 6 -20 -3 0 -10 9 -16 20 -6 11 -8 20 -6 20 3 0 10 -9
16 -20z m71 -54 c-18 -21 -34 -9 -28 20 2 13 0 24 -4 24 -5 0 -9 6 -9 12 0 7
12 1 27 -14 22 -23 24 -29 14 -42z m-726 44 c3 -5 -1 -10 -9 -10 -9 0 -16 5
-16 10 0 6 4 10 9 10 6 0 13 -4 16 -10z m1082 -22 c-3 -8 -6 -5 -6 6 -1 11 2
17 5 13 3 -3 4 -12 1 -19z m-1700 6 c-3 -3 -12 -4 -19 -1 -8 3 -5 6 6 6 11 1
17 -2 13 -5z m196 -1 c-29 -2 -77 -2 -105 0 -29 2 -6 3 52 3 58 0 81 -1 53 -3z
m707 -19 c0 -8 -9 -14 -20 -14 -22 0 -26 10 -8 28 13 13 28 7 28 -14z m1718
19 c-32 -2 -84 -2 -115 0 -32 2 -6 3 57 3 63 0 89 -1 58 -3z m-837 -18 c0 -6
-10 -12 -22 -13 -19 -3 -20 -2 -8 12 15 16 31 17 30 1z m-511 1 c0 -3 -4 -8
-10 -11 -5 -3 -10 -1 -10 4 0 6 5 11 10 11 6 0 10 -2 10 -4z m135 -6 c3 -5 1
-10 -4 -10 -6 0 -11 5 -11 10 0 6 2 10 4 10 3 0 8 -4 11 -10z m-842 -7 c-18
-2 -48 -2 -65 0 -18 2 -4 4 32 4 36 0 50 -2 33 -4z m-493 -25 c0 -18 -2 -20
-9 -8 -6 8 -7 18 -5 22 9 14 14 9 14 -14z m77 -10 c-3 -7 -5 -2 -5 12 0 14 2
19 5 13 2 -7 2 -19 0 -25z m103 12 c0 -11 -4 -20 -10 -20 -5 0 -10 9 -10 20 0
11 5 20 10 20 6 0 10 -9 10 -20z m33 0 c-3 -12 -8 -19 -11 -16 -5 6 5 36 12
36 2 0 2 -9 -1 -20z m2230 0 c3 -11 1 -20 -4 -20 -5 0 -9 9 -9 20 0 11 2 20 4
20 2 0 6 -9 9 -20z m84 -12 c-3 -7 -5 -2 -5 12 0 14 2 19 5 13 2 -7 2 -19 0
-25z m-1705 -2 c3 -13 -1 -34 -7 -46 -11 -21 -12 -21 -18 15 -3 21 -4 42 -1
47 10 15 22 8 26 -16z m865 2 c3 12 11 22 19 22 13 0 14 -10 9 -54 -6 -42 -3
-59 10 -80 15 -22 15 -25 2 -20 -16 6 -27 34 -27 74 0 14 -9 31 -20 38 -11 7
-20 20 -19 30 0 12 3 10 11 -8 11 -25 11 -25 15 -2z m-62 -43 c-6 -42 -8 -45
-20 -29 -11 15 -10 20 2 30 14 10 14 11 -1 17 -9 4 -16 11 -16 17 0 6 4 9 9 5
5 -3 13 0 16 6 13 20 17 0 10 -46z m444 18 c2 -2 -17 -3 -43 -3 l-48 0 23 19
c22 18 25 18 44 3 11 -9 22 -18 24 -19z m-1549 12 c24 -14 23 -14 -24 -15 -46
0 -48 1 -30 15 23 18 23 18 54 0z m327 -17 c-3 -7 -5 -2 -5 12 0 14 2 19 5 13
2 -7 2 -19 0 -25z m65 9 c-13 -15 -14 -20 -3 -26 8 -6 9 -11 3 -15 -9 -6 -22
17 -28 50 -1 7 9 11 21 10 22 -1 23 -2 7 -19z m105 17 c-3 -3 -12 -4 -19 -1
-8 3 -5 6 6 6 11 1 17 -2 13 -5z m-250 -56 c-2 -13 -4 -5 -4 17 -1 22 1 32 4
23 2 -10 2 -28 0 -40z m1906 45 c-7 -2 -19 -2 -25 0 -7 3 -2 5 12 5 14 0 19
-2 13 -5z m-2833 -84 c0 -27 -4 -49 -10 -49 -5 0 -10 25 -10 56 0 34 4 53 10
49 6 -3 10 -28 10 -56z m37 -96 c-2 -32 -3 -8 -3 52 0 61 1 87 3 58 2 -29 2
-78 0 -110z m53 72 c0 -50 -4 -85 -10 -85 -5 0 -10 21 -10 48 0 49 10 122 16
122 2 0 4 -38 4 -85z m248 -22 l3 -103 -99 0 -100 0 -1 105 -2 106 98 -3 98
-3 3 -102z m2352 2 l0 -105 -95 0 -95 0 0 98 c0 54 3 102 7 105 3 4 46 7 95 7
l88 0 0 -105z m67 -28 c-2 -23 -3 -1 -3 48 0 50 1 68 3 42 2 -26 2 -67 0 -90z
m97 56 l-8 -38 -6 50 c-6 57 -1 78 13 48 6 -13 6 -38 1 -60z m-1689 -28 c0
-52 -3 -95 -7 -95 -10 0 -11 174 -1 183 3 4 7 7 7 7 1 0 1 -43 1 -95z m34 -2
c-2 -108 -6 -100 -11 20 -2 42 0 77 4 77 5 0 7 -44 7 -97z m341 -113 l0 -210
203 -3 c111 -1 -52 -2 -363 -2 -311 0 -458 1 -327 2 l237 3 0 210 0 210 125 0
125 0 0 -210z m150 115 c0 -58 -4 -95 -10 -95 -7 0 -8 28 -4 80 5 58 3 84 -6
95 -10 12 -10 15 4 15 14 0 16 -14 16 -95z m135 41 c-9 -21 -18 -36 -21 -33
-3 2 3 23 13 46 10 23 19 38 21 33 1 -5 -5 -25 -13 -46z m82 22 c-3 -7 -5 -2
-5 12 0 14 2 19 5 13 2 -7 2 -19 0 -25z m-892 -4 c9 -15 12 -23 6 -20 -11 7
-35 46 -28 46 3 0 12 -12 22 -26z m632 4 c-3 -8 -6 -5 -6 6 -1 11 2 17 5 13 3
-3 4 -12 1 -19z m490 -30 c-2 -13 -4 -5 -4 17 -1 22 1 32 4 23 2 -10 2 -28 0
-40z m-1570 -10 c-2 -13 -4 -5 -4 17 -1 22 1 32 4 23 2 -10 2 -28 0 -40z m170
-5 c-3 -10 -5 -2 -5 17 0 19 2 27 5 18 2 -10 2 -26 0 -35z m230 14 c-6 -13
-17 -24 -24 -24 -10 0 -10 4 2 17 8 9 15 22 15 29 0 7 4 10 9 7 5 -4 4 -16 -2
-29z m-590 -39 c-2 -13 -4 -3 -4 22 0 25 2 35 4 23 2 -13 2 -33 0 -45z m522 5
l-3 -58 85 -6 84 -5 -105 -2 c-58 -1 -99 2 -92 7 13 8 20 39 21 94 1 15 4 27
7 27 3 0 4 -26 3 -57z m947 0 c-11 -11 -19 6 -11 24 8 17 8 17 12 0 3 -10 2
-21 -1 -24z m-853 12 c-3 -9 -8 -14 -10 -11 -3 3 -2 9 2 15 9 16 15 13 8 -4z
m-256 -47 c-16 -10 -147 -9 -172 2 -17 7 -14 9 15 10 19 1 43 5 54 9 24 9 120
-10 103 -21z m1213 10 c0 -16 -3 -19 -11 -11 -6 6 -8 16 -5 22 11 17 16 13 16
-11z m290 5 c45 -5 50 -8 30 -14 -37 -11 -158 -10 -165 0 -5 9 17 15 65 19 8
1 40 -1 70 -5z m-270 -49 c0 -2 -48 -3 -107 -2 l-108 2 95 5 c89 6 120 4 120
-5z m-1030 -52 c0 -4 -9 -8 -19 -8 -11 0 -17 4 -15 8 3 4 12 8 20 8 8 0 14 -4
14 -8z m50 4 c0 -3 -4 -8 -10 -11 -5 -3 -10 -1 -10 4 0 6 5 11 10 11 6 0 10
-2 10 -4z m825 -6 c7 -12 -2 -12 -30 0 -19 8 -19 9 2 9 12 1 25 -3 28 -9z
m105 6 c0 -3 -4 -8 -10 -11 -5 -3 -10 -1 -10 4 0 6 5 11 10 11 6 0 10 -2 10
-4z m30 -6 c0 -5 -5 -10 -11 -10 -5 0 -7 5 -4 10 3 6 8 10 11 10 2 0 4 -4 4
-10z m273 -7 c-18 -2 -48 -2 -65 0 -18 2 -4 4 32 4 36 0 50 -2 33 -4z m-1706
-9 c-3 -3 -12 -4 -19 -1 -8 3 -5 6 6 6 11 1 17 -2 13 -5z m161 -31 c-42 -2
-114 -2 -160 0 -46 1 -11 3 77 3 88 0 125 -2 83 -3z m1655 0 c-45 -2 -122 -2
-170 0 -48 1 -11 3 82 3 94 0 133 -2 88 -3z m-420 -10 c-23 -2 -64 -2 -90 0
-26 2 -7 3 42 3 50 0 71 -1 48 -3z m-720 -10 c-7 -2 -21 -2 -30 0 -10 3 -4 5
12 5 17 0 24 -2 18 -5z m480 0 c-7 -2 -19 -2 -25 0 -7 3 -2 5 12 5 14 0 19 -2
13 -5z m-1015 -20 c-21 -2 -57 -2 -80 0 -24 2 -7 4 37 4 44 0 63 -2 43 -4z
m382 -3 c44 -6 28 -7 -75 -8 -81 0 -122 3 -110 8 24 10 111 11 185 0z m930 0
c10 -7 -26 -9 -110 -9 -79 1 -114 4 -95 9 44 11 188 11 205 0z m353 3 c-29 -2
-78 -2 -110 0 -32 2 -8 3 52 3 61 0 87 -1 58 -3z m-1342 -54 c-74 -4 -144 -3
-155 1 -13 5 40 8 134 8 l155 -1 -134 -8z m1004 0 c-49 -10 -199 -9 -240 1
-18 4 34 8 125 8 107 0 143 -3 115 -9z m-1343 -6 c-40 -2 -103 -2 -140 0 -37
2 -4 3 73 3 77 0 107 -2 67 -3z m1696 0 c-38 -2 -98 -2 -135 0 -38 2 -7 3 67
3 74 0 105 -1 68 -3z m-1230 -20 c-10 -2 -28 -2 -40 0 -13 2 -5 4 17 4 22 1
32 -1 23 -4z m665 0 c-13 -2 -33 -2 -45 0 -13 2 -3 4 22 4 25 0 35 -2 23 -4z
m-1850 -90 c-7 -2 -21 -2 -30 0 -10 3 -4 5 12 5 17 0 24 -2 18 -5z m1825 -10
c-181 -2 -475 -2 -655 0 -181 1 -33 2 327 2 360 0 508 -1 328 -2z m-115 -60
c-171 -2 -455 -2 -630 0 -175 1 -34 2 312 2 347 0 490 -1 318 -2z m-1753 -18
c0 -8 -7 -15 -15 -15 -16 0 -20 12 -8 23 11 12 23 8 23 -8z m68 -3 c2 -7 -3
-12 -12 -12 -9 0 -16 7 -16 16 0 17 22 14 28 -4z m53 -5 c-13 -13 -26 -3 -16
12 3 6 11 8 17 5 6 -4 6 -10 -1 -17z m70 10 c-1 -12 -15 -9 -19 4 -3 6 1 10 8
8 6 -3 11 -8 11 -12z m64 3 c3 -5 1 -10 -4 -10 -6 0 -11 5 -11 10 0 6 2 10 4
10 3 0 8 -4 11 -10z m225 -11 c0 -5 -7 -9 -15 -9 -15 0 -20 12 -9 23 8 8 24
-1 24 -14z m114 0 c-3 -5 -10 -7 -15 -3 -5 3 -7 10 -3 15 3 5 10 7 15 3 5 -3
7 -10 3 -15z m1846 5 c0 -8 -5 -12 -10 -9 -6 4 -8 11 -5 16 9 14 15 11 15 -7z
m60 6 c0 -5 -5 -10 -11 -10 -5 0 -7 5 -4 10 3 6 8 10 11 10 2 0 4 -4 4 -10z
m64 -11 c-3 -5 -10 -7 -15 -3 -5 3 -7 10 -3 15 3 5 10 7 15 3 5 -3 7 -10 3
-15z m66 0 c0 -5 -7 -9 -15 -9 -9 0 -12 6 -9 15 6 15 24 11 24 -6z m205 11 c3
-5 -1 -10 -9 -10 -9 0 -16 5 -16 10 0 6 4 10 9 10 6 0 13 -4 16 -10z m79 -5
c4 -11 -1 -15 -19 -15 -24 0 -32 10 -18 23 11 12 31 8 37 -8z m63 -11 c-9 -9
-28 6 -21 18 4 6 10 6 17 -1 6 -6 8 -13 4 -17z m71 8 c2 -7 -3 -12 -12 -12 -9
0 -16 7 -16 16 0 17 22 14 28 -4z m59 -8 c-9 -9 -28 6 -21 18 4 6 10 6 17 -1
6 -6 8 -13 4 -17z m-2567 6 c0 -5 -7 -10 -16 -10 -8 0 -12 5 -9 10 3 6 10 10
16 10 5 0 9 -4 9 -10z m110 6 c0 -3 -4 -8 -10 -11 -5 -3 -10 -1 -10 4 0 6 5
11 10 11 6 0 10 -2 10 -4z m1258 -43 c-203 -2 -533 -2 -735 0 -203 1 -37 2
367 2 404 0 570 -1 368 -2z m-1380 -10 c-21 -2 -55 -2 -75 0 -21 2 -4 4 37 4
41 0 58 -2 38 -4z m2069 1 c-3 -3 -12 -4 -19 -1 -8 3 -5 6 6 6 11 1 17 -2 13
-5z m-2054 -51 c-34 -2 -93 -2 -130 0 -37 2 -9 3 62 3 72 0 102 -1 68 -3z
m1395 0 c-218 -2 -578 -2 -800 0 -222 1 -43 2 397 2 440 0 621 -1 403 -2z
m740 0 c-32 -2 -86 -2 -120 0 -35 2 -9 3 57 3 66 0 94 -1 63 -3z"/>
<path d="M1744 2755 c-7 -17 4 -37 17 -30 12 8 12 45 -1 45 -6 0 -13 -7 -16
-15z"/>
<path d="M1741 2674 c0 -11 3 -14 6 -6 3 7 2 16 -1 19 -3 4 -6 -2 -5 -13z"/>
<path d="M1766 2674 c-4 -9 -4 -19 -2 -21 8 -8 26 8 26 23 0 19 -16 18 -24 -2z"/>
<path d="M1760 2490 c0 -5 7 -10 15 -10 8 0 15 5 15 10 0 6 -7 10 -15 10 -8 0
-15 -4 -15 -10z"/>
<path d="M1754 2122 c4 -6 2 -13 -4 -17 -24 -15 -9 -35 25 -35 45 0 47 23 4
46 -17 8 -28 11 -25 6z"/>
<path d="M1900 1060 c0 -5 5 -10 10 -10 6 0 10 5 10 10 0 6 -4 10 -10 10 -5 0
-10 -4 -10 -10z"/>
<path d="M1895 3210 c3 -5 8 -10 11 -10 2 0 4 5 4 10 0 6 -5 10 -11 10 -5 0
-7 -4 -4 -10z"/>
<path d="M1598 3003 c7 -3 16 -2 19 1 4 3 -2 6 -13 5 -11 0 -14 -3 -6 -6z"/>
<path d="M1705 2970 c-3 -5 1 -10 9 -10 9 0 16 5 16 10 0 6 -4 10 -9 10 -6 0
-13 -4 -16 -10z"/>
<path d="M1438 2763 c6 -2 18 -2 25 0 6 3 1 5 -13 5 -14 0 -19 -2 -12 -5z"/>
<path d="M2102 2748 c5 -32 28 -35 28 -4 0 17 -5 26 -16 26 -10 0 -14 -7 -12
-22z"/>
<path d="M1445 2730 c-3 -5 1 -10 9 -10 9 0 16 5 16 10 0 6 -4 10 -9 10 -6 0
-13 -4 -16 -10z"/>
<path d="M2988 2653 c-14 -3 -18 -15 -18 -49 0 -42 1 -44 29 -44 15 0 40 -9
54 -20 25 -20 77 -28 77 -11 0 5 -9 11 -21 14 -23 6 -17 27 7 27 8 0 14 5 14
10 0 6 -9 10 -21 10 -11 0 -18 4 -15 9 8 12 -51 61 -72 60 -9 -1 -25 -3 -34
-6z"/>
<path d="M3520 25 c-13 -14 -19 -25 -13 -25 12 0 48 38 41 45 -2 3 -15 -6 -28
-20z"/>
</g>
</svg>
